<svg width="149" height="149" viewBox="0 0 149 149" fill="none" xmlns="http://www.w3.org/2000/svg">
<path d="M80.1729 73.4566C79.6046 72.5524 78.9874 72.0906 78.3229 72.0758C77.0545 72.0455 76.0488 72.3555 75.3088 73.003C76.6401 74.2728 77.3934 74.9714 77.5725 75.0972C78.5538 75.815 79.7059 76.2649 81.032 76.4462C81.0283 75.3577 80.7405 74.3609 80.1721 73.4566H80.1729ZM89.1329 68.6097C89.1417 68.4254 89.1573 68.2434 89.1765 68.0643C89.2291 67.5915 89.3097 67.1304 89.3748 66.6702C89.7374 64.1764 90.2244 61.7041 91.0088 59.2999C91.0968 59.0305 91.0917 58.7264 91.1464 58.2935C90.6328 58.3815 90.2762 58.4393 89.921 58.5059C88.0532 58.8611 86.1869 59.2266 84.3162 59.5774C79.0362 60.7399 71.8034 61.505 64.3494 59.7535C62.4483 59.3983 60.619 58.881 58.8186 58.3253C58.7601 58.3623 58.7098 58.3993 58.6669 58.4378C59.9826 62.4988 62.0731 70.8245 60.8284 79.9589C62.4202 79.8723 63.952 79.5475 65.4209 78.9851C66.5797 78.5278 68.0346 77.0804 69.784 74.6413C71.4393 72.3518 72.4339 71.2122 72.7654 71.2204C72.9164 71.2226 73.0503 71.3328 73.165 71.5474C75.311 67.6973 77.5917 65.7999 80.0086 65.8562C81.9733 65.9021 83.4555 67.1312 84.4568 69.5428C85.3167 71.5881 85.7111 74.1211 85.6408 77.1425C85.6053 78.6817 85.2242 80.141 84.496 81.5144C83.6761 82.9759 82.7518 83.6951 81.7247 83.6722C80.5762 83.6455 78.8668 83.0462 76.5964 81.8748C75.237 81.1466 74.0723 80.3866 73.1036 79.5941L70.8066 84.1547L71.6613 78.231C71.3972 77.9387 71.1596 77.645 70.9435 77.3445C69.1231 80.2653 67.9014 82.0494 67.282 82.6998C65.207 84.979 62.0827 86.314 59.3551 86.4516V86.4531C59.3203 86.4546 59.2848 86.4553 59.25 86.4568C59.1915 86.7431 59.1301 87.028 59.065 87.3129C58.937 87.8813 58.7993 88.4488 58.6521 89.0134C58.5677 89.3442 58.4604 89.6765 58.4338 90.0139C58.4219 90.1686 58.4426 90.3254 58.4722 90.5023C58.49 90.4986 58.5078 90.4949 58.5255 90.4905C58.5744 90.4801 58.6254 90.469 58.6802 90.4586C59.25 90.341 60.0943 90.176 61.1548 89.9947C61.2288 89.9821 61.3042 89.9688 61.3812 89.9562C61.6979 89.9022 62.0354 89.8474 62.3876 89.7926C62.4579 89.7808 62.5282 89.7712 62.5985 89.7593C62.6866 89.7453 62.7776 89.7327 62.8679 89.7187C62.9241 89.7098 62.9803 89.7024 63.0366 89.6927C63.559 89.615 64.1126 89.5366 64.6935 89.4619C64.8777 89.4374 65.0642 89.413 65.2529 89.3901C65.6488 89.3413 66.0565 89.2932 66.4754 89.2458C66.7536 89.2162 67.0363 89.1859 67.3234 89.1577C67.4944 89.14 67.6668 89.123 67.8422 89.1067C67.9473 89.0963 68.0531 89.086 68.1589 89.0771C68.5141 89.0453 68.8745 89.0142 69.2401 88.9853C69.4524 88.969 69.667 88.9535 69.8824 88.938C70.3552 88.9047 70.8355 88.8751 71.3224 88.8499C71.4593 88.8425 71.5955 88.8358 71.7324 88.8292C71.8537 88.8225 71.9751 88.8173 72.0965 88.8129C72.3888 88.8011 72.684 88.79 72.9815 88.7811C73.1221 88.7759 73.2612 88.7722 73.4033 88.7692C73.4951 88.767 73.5883 88.7655 73.6816 88.7626C73.8007 88.7604 73.9176 88.7574 74.0368 88.7559C74.1544 88.7537 74.2728 88.7522 74.392 88.7507C79.8628 88.693 85.7903 89.2821 90.655 91.334C91.1353 90.9174 90.8815 90.5393 90.7779 90.1589C89.9128 87.0021 89.3882 83.7824 89.1269 80.5198C89.1144 80.3637 89.0618 80.209 89.0285 80.0559C89.0618 80.0403 89.0951 80.0255 89.1292 80.01C89.1366 80.0063 89.1447 80.0026 89.1536 79.9981C89.1462 79.9404 89.138 79.882 89.1306 79.8228V79.8205C88.714 76.4477 88.6097 72.7122 89.1232 68.8465C89.1232 68.7658 89.1255 68.6866 89.1299 68.6075L89.1329 68.6097ZM80.1729 73.4566C79.6046 72.5524 78.9874 72.0906 78.3229 72.0758C77.0545 72.0455 76.0488 72.3555 75.3088 73.003C76.6401 74.2728 77.3934 74.9714 77.5725 75.0972C78.5538 75.815 79.7059 76.2649 81.032 76.4462C81.0283 75.3577 80.7405 74.3609 80.1721 73.4566H80.1729ZM80.1729 73.4566C79.6046 72.5524 78.9874 72.0906 78.3229 72.0758C77.0545 72.0455 76.0488 72.3555 75.3088 73.003C76.6401 74.2728 77.3934 74.9714 77.5725 75.0972C78.5538 75.815 79.7059 76.2649 81.032 76.4462C81.0283 75.3577 80.7405 74.3609 80.1721 73.4566H80.1729ZM80.1729 73.4566C79.6046 72.5524 78.9874 72.0906 78.3229 72.0758C77.0545 72.0455 76.0488 72.3555 75.3088 73.003C76.6401 74.2728 77.3934 74.9714 77.5725 75.0972C78.5538 75.815 79.7059 76.2649 81.032 76.4462C81.0283 75.3577 80.7405 74.3609 80.1721 73.4566H80.1729ZM89.1329 68.6097C89.1417 68.4254 89.1573 68.2434 89.1765 68.0643C89.2291 67.5915 89.3097 67.1304 89.3748 66.6702C89.7374 64.1764 90.2244 61.7041 91.0088 59.2999C91.0968 59.0305 91.0917 58.7264 91.1464 58.2935C90.6328 58.3815 90.2762 58.4393 89.921 58.5059C88.0532 58.8611 86.1869 59.2266 84.3162 59.5774C79.0362 60.7399 71.8034 61.505 64.3494 59.7535C62.4483 59.3983 60.619 58.881 58.8186 58.3253C58.7601 58.3623 58.7098 58.3993 58.6669 58.4378C59.9826 62.4988 62.0731 70.8245 60.8284 79.9589C62.4202 79.8723 63.952 79.5475 65.4209 78.9851C66.5797 78.5278 68.0346 77.0804 69.784 74.6413C71.4393 72.3518 72.4339 71.2122 72.7654 71.2204C72.9164 71.2226 73.0503 71.3328 73.165 71.5474C75.311 67.6973 77.5917 65.7999 80.0086 65.8562C81.9733 65.9021 83.4555 67.1312 84.4568 69.5428C85.3167 71.5881 85.7111 74.1211 85.6408 77.1425C85.6053 78.6817 85.2242 80.141 84.496 81.5144C83.6761 82.9759 82.7518 83.6951 81.7247 83.6722C80.5762 83.6455 78.8668 83.0462 76.5964 81.8748C75.237 81.1466 74.0723 80.3866 73.1036 79.5941L70.8066 84.1547L71.6613 78.231C71.3972 77.9387 71.1596 77.645 70.9435 77.3445C69.1231 80.2653 67.9014 82.0494 67.282 82.6998C65.207 84.979 62.0827 86.314 59.3551 86.4516V86.4531C59.3203 86.4546 59.2848 86.4553 59.25 86.4568C59.1915 86.7431 59.1301 87.028 59.065 87.3129C58.937 87.8813 58.7993 88.4488 58.6521 89.0134C58.5677 89.3442 58.4604 89.6765 58.4338 90.0139C58.4219 90.1686 58.4426 90.3254 58.4722 90.5023C58.49 90.4986 58.5078 90.4949 58.5255 90.4905C58.5744 90.4801 58.6254 90.469 58.6802 90.4586C59.25 90.341 60.0943 90.176 61.1548 89.9947C61.2288 89.9821 61.3042 89.9688 61.3812 89.9562C61.6979 89.9022 62.0354 89.8474 62.3876 89.7926C62.4579 89.7808 62.5282 89.7712 62.5985 89.7593C62.6866 89.7453 62.7776 89.7327 62.8679 89.7187C62.9241 89.7098 62.9803 89.7024 63.0366 89.6927C63.559 89.615 64.1126 89.5366 64.6935 89.4619C64.8777 89.4374 65.0642 89.413 65.2529 89.3901C65.6488 89.3413 66.0565 89.2932 66.4754 89.2458C66.7536 89.2162 67.0363 89.1859 67.3234 89.1577C67.4944 89.14 67.6668 89.123 67.8422 89.1067C67.9473 89.0963 68.0531 89.086 68.1589 89.0771C68.5141 89.0453 68.8745 89.0142 69.2401 88.9853C69.4524 88.969 69.667 88.9535 69.8824 88.938C70.3552 88.9047 70.8355 88.8751 71.3224 88.8499C71.4593 88.8425 71.5955 88.8358 71.7324 88.8292C71.8537 88.8225 71.9751 88.8173 72.0965 88.8129C72.3888 88.8011 72.684 88.79 72.9815 88.7811C73.1221 88.7759 73.2612 88.7722 73.4033 88.7692C73.4951 88.767 73.5883 88.7655 73.6816 88.7626C73.8007 88.7604 73.9176 88.7574 74.0368 88.7559C74.1544 88.7537 74.2728 88.7522 74.392 88.7507C79.8628 88.693 85.7903 89.2821 90.655 91.334C91.1353 90.9174 90.8815 90.5393 90.7779 90.1589C89.9128 87.0021 89.3882 83.7824 89.1269 80.5198C89.1144 80.3637 89.0618 80.209 89.0285 80.0559C89.0618 80.0403 89.0951 80.0255 89.1292 80.01L89.1306 79.8235V79.8213C88.714 76.4484 88.6097 72.7129 89.1232 68.8472C89.1232 68.7666 89.1255 68.6874 89.1299 68.6082L89.1329 68.6097ZM80.1729 73.4566C79.6046 72.5524 78.9874 72.0906 78.3229 72.0758C77.0545 72.0455 76.0488 72.3555 75.3088 73.003C76.6401 74.2728 77.3934 74.9714 77.5725 75.0972C78.5538 75.815 79.7059 76.2649 81.032 76.4462C81.0283 75.3577 80.7405 74.3609 80.1721 73.4566H80.1729ZM80.1729 73.4566C79.6046 72.5524 78.9874 72.0906 78.3229 72.0758C77.0545 72.0455 76.0488 72.3555 75.3088 73.003C76.6401 74.2728 77.3934 74.9714 77.5725 75.0972C78.5538 75.815 79.7059 76.2649 81.032 76.4462C81.0283 75.3577 80.7405 74.3609 80.1721 73.4566H80.1729ZM89.1329 68.6097C89.1417 68.4254 89.1573 68.2434 89.1765 68.0643C89.2291 67.5915 89.3097 67.1304 89.3748 66.6702C89.7374 64.1764 90.2244 61.7041 91.0088 59.2999C91.0968 59.0305 91.0917 58.7264 91.1464 58.2935C90.6328 58.3815 90.2762 58.4393 89.921 58.5059C88.0532 58.8611 86.1869 59.2266 84.3162 59.5774C79.0362 60.7399 71.8034 61.505 64.3494 59.7535C62.4483 59.3983 60.619 58.881 58.8186 58.3253C58.7601 58.3623 58.7098 58.3993 58.6669 58.4378C59.9826 62.4988 62.0731 70.8245 60.8284 79.9589C62.4202 79.8723 63.952 79.5475 65.4209 78.9851C66.5797 78.5278 68.0346 77.0804 69.784 74.6413C71.4393 72.3518 72.4339 71.2122 72.7654 71.2204C72.9164 71.2226 73.0503 71.3328 73.165 71.5474C75.311 67.6973 77.5917 65.7999 80.0086 65.8562C81.9733 65.9021 83.4555 67.1312 84.4568 69.5428C85.3167 71.5881 85.7111 74.1211 85.6408 77.1425C85.6053 78.6817 85.2242 80.141 84.496 81.5144C83.6761 82.9759 82.7518 83.6951 81.7247 83.6722C80.5762 83.6455 78.8668 83.0462 76.5964 81.8748C75.237 81.1466 74.0723 80.3866 73.1036 79.5941L70.8066 84.1547L71.6613 78.231C71.3972 77.9387 71.1596 77.645 70.9435 77.3445C69.1231 80.2653 67.9014 82.0494 67.282 82.6998C65.207 84.979 62.0827 86.314 59.3551 86.4516V86.4531C59.3203 86.4546 59.2848 86.4553 59.25 86.4568C59.1915 86.7431 59.1301 87.028 59.065 87.3129C58.937 87.8813 58.7993 88.4488 58.6521 89.0134C58.5677 89.3442 58.4604 89.6765 58.4338 90.0139C58.4219 90.1686 58.4426 90.3254 58.4722 90.5023C58.49 90.4986 58.5078 90.4949 58.5255 90.4905C58.5744 90.4801 58.6254 90.469 58.6802 90.4586C59.25 90.341 60.0943 90.176 61.1548 89.9947C61.2288 89.9821 61.3042 89.9688 61.3812 89.9562C61.6979 89.9022 62.0354 89.8474 62.3876 89.7926C62.4579 89.7808 62.5282 89.7712 62.5985 89.7593C62.6866 89.7453 62.7776 89.7327 62.8679 89.7187C62.9241 89.7098 62.9803 89.7024 63.0366 89.6927C63.559 89.615 64.1126 89.5366 64.6935 89.4619C64.8777 89.4374 65.0642 89.413 65.2529 89.3901C65.6488 89.3413 66.0565 89.2932 66.4754 89.2458C66.7536 89.2162 67.0363 89.1859 67.3234 89.1577C67.4944 89.14 67.6668 89.123 67.8422 89.1067C67.9473 89.0963 68.0531 89.086 68.1589 89.0771C68.5141 89.0453 68.8745 89.0142 69.2401 88.9853C69.4524 88.969 69.667 88.9535 69.8824 88.938C70.3552 88.9047 70.8355 88.8751 71.3224 88.8499C71.4593 88.8425 71.5955 88.8358 71.7324 88.8292C71.8537 88.8225 71.9751 88.8173 72.0965 88.8129C72.3888 88.8011 72.684 88.79 72.9815 88.7811C73.1221 88.7759 73.2612 88.7722 73.4033 88.7692C73.4951 88.767 73.5883 88.7655 73.6816 88.7626C73.8007 88.7604 73.9176 88.7574 74.0368 88.7559C74.1544 88.7537 74.2728 88.7522 74.392 88.7507C79.8628 88.693 85.7903 89.2821 90.655 91.334C91.1353 90.9174 90.8815 90.5393 90.7779 90.1589C89.9128 87.0021 89.3882 83.7824 89.1269 80.5198C89.1144 80.3637 89.0618 80.209 89.0285 80.0559C89.0618 80.0403 89.0951 80.0255 89.1292 80.01L89.1306 79.8235V79.8213C88.714 76.4484 88.6097 72.7129 89.1232 68.8472C89.1232 68.7666 89.1255 68.6874 89.1299 68.6082L89.1329 68.6097ZM80.1729 73.4566C79.6046 72.5524 78.9874 72.0906 78.3229 72.0758C77.0545 72.0455 76.0488 72.3555 75.3088 73.003C76.6401 74.2728 77.3934 74.9714 77.5725 75.0972C78.5538 75.815 79.7059 76.2649 81.032 76.4462C81.0283 75.3577 80.7405 74.3609 80.1721 73.4566H80.1729ZM80.1729 73.4566C79.6046 72.5524 78.9874 72.0906 78.3229 72.0758C77.0545 72.0455 76.0488 72.3555 75.3088 73.003C76.6401 74.2728 77.3934 74.9714 77.5725 75.0972C78.5538 75.815 79.7059 76.2649 81.032 76.4462C81.0283 75.3577 80.7405 74.3609 80.1721 73.4566H80.1729ZM89.1329 68.6097C89.1417 68.4254 89.1573 68.2434 89.1765 68.0643C89.2291 67.5915 89.3097 67.1304 89.3748 66.6702C89.7374 64.1764 90.2244 61.7041 91.0088 59.2999C91.0968 59.0305 91.0917 58.7264 91.1464 58.2935C90.6328 58.3815 90.2762 58.4393 89.921 58.5059C88.0532 58.8611 86.1869 59.2266 84.3162 59.5774C79.0362 60.7399 71.8034 61.505 64.3494 59.7535C62.4483 59.3983 60.619 58.881 58.8186 58.3253C58.7601 58.3623 58.7098 58.3993 58.6669 58.4378C59.9826 62.4988 62.0731 70.8245 60.8284 79.9589C62.4202 79.8723 63.952 79.5475 65.4209 78.9851C66.5797 78.5278 68.0346 77.0804 69.784 74.6413C71.4393 72.3518 72.4339 71.2122 72.7654 71.2204C72.9164 71.2226 73.0503 71.3328 73.165 71.5474C75.311 67.6973 77.5917 65.7999 80.0086 65.8562C81.9733 65.9021 83.4555 67.1312 84.4568 69.5428C85.3167 71.5881 85.7111 74.1211 85.6408 77.1425C85.6053 78.6817 85.2242 80.141 84.496 81.5144C83.6761 82.9759 82.7518 83.6951 81.7247 83.6722C80.5762 83.6455 78.8668 83.0462 76.5964 81.8748C75.237 81.1466 74.0723 80.3866 73.1036 79.5941L70.8066 84.1547L71.6613 78.231C71.3972 77.9387 71.1596 77.645 70.9435 77.3445C69.1231 80.2653 67.9014 82.0494 67.282 82.6998C65.207 84.979 62.0827 86.314 59.3551 86.4516V86.4531C59.3203 86.4546 59.2848 86.4553 59.25 86.4568C59.1915 86.7431 59.1301 87.028 59.065 87.3129C58.937 87.8813 58.7993 88.4488 58.6521 89.0134C58.5677 89.3442 58.4604 89.6765 58.4338 90.0139C58.4219 90.1686 58.4426 90.3254 58.4722 90.5023C58.49 90.4986 58.5078 90.4949 58.5255 90.4905C58.5744 90.4801 58.6254 90.469 58.6802 90.4586C59.25 90.341 60.0943 90.176 61.1548 89.9947C61.2288 89.9821 61.3042 89.9688 61.3812 89.9562C61.6979 89.9022 62.0354 89.8474 62.3876 89.7926C62.4579 89.7808 62.5282 89.7712 62.5985 89.7593C62.6866 89.7453 62.7776 89.7327 62.8679 89.7187C62.9241 89.7098 62.9803 89.7024 63.0366 89.6927C63.559 89.615 64.1126 89.5366 64.6935 89.4619C64.8777 89.4374 65.0642 89.413 65.2529 89.3901C65.6488 89.3413 66.0565 89.2932 66.4754 89.2458C66.7536 89.2162 67.0363 89.1859 67.3234 89.1577C67.4944 89.14 67.6668 89.123 67.8422 89.1067C67.9473 89.0963 68.0531 89.086 68.1589 89.0771C68.5141 89.0453 68.8745 89.0142 69.2401 88.9853C69.4524 88.969 69.667 88.9535 69.8824 88.938C70.3552 88.9047 70.8355 88.8751 71.3224 88.8499C71.4593 88.8425 71.5955 88.8358 71.7324 88.8292C71.8537 88.8225 71.9751 88.8173 72.0965 88.8129C72.3888 88.8011 72.684 88.79 72.9815 88.7811C73.1221 88.7759 73.2612 88.7722 73.4033 88.7692C73.4951 88.767 73.5883 88.7655 73.6816 88.7626C73.8007 88.7604 73.9176 88.7574 74.0368 88.7559C74.1544 88.7537 74.2728 88.7522 74.392 88.7507C79.8628 88.693 85.7903 89.2821 90.655 91.334C91.1353 90.9174 90.8815 90.5393 90.7779 90.1589C89.9128 87.0021 89.3882 83.7824 89.1269 80.5198C89.1144 80.3637 89.0618 80.209 89.0285 80.0559C89.0618 80.0403 89.0951 80.0255 89.1292 80.01C89.1366 80.0063 89.1447 80.0026 89.1536 79.9981C89.1462 79.9404 89.138 79.882 89.1306 79.8228V79.8205C88.714 76.4477 88.6097 72.7122 89.1232 68.8465C89.1232 68.7658 89.1255 68.6866 89.1299 68.6075L89.1329 68.6097ZM89.1329 68.6097C89.1417 68.4254 89.1573 68.2434 89.1765 68.0643C89.2291 67.5915 89.3097 67.1304 89.3748 66.6702C89.7374 64.1764 90.2244 61.7041 91.0088 59.2999C91.0968 59.0305 91.0917 58.7264 91.1464 58.2935C90.6328 58.3815 90.2762 58.4393 89.921 58.5059C88.0532 58.8611 86.1869 59.2266 84.3162 59.5774C79.0362 60.7399 71.8034 61.505 64.3494 59.7535C62.4483 59.3983 60.619 58.881 58.8186 58.3253C58.7601 58.3623 58.7098 58.3993 58.6669 58.4378C59.9826 62.4988 62.0731 70.8245 60.8284 79.9589C62.4202 79.8723 63.952 79.5475 65.4209 78.9851C66.5797 78.5278 68.0346 77.0804 69.784 74.6413C71.4393 72.3518 72.4339 71.2122 72.7654 71.2204C72.9164 71.2226 73.0503 71.3328 73.165 71.5474C75.311 67.6973 77.5917 65.7999 80.0086 65.8562C81.9733 65.9021 83.4555 67.1312 84.4568 69.5428C85.3167 71.5881 85.7111 74.1211 85.6408 77.1425C85.6053 78.6817 85.2242 80.141 84.496 81.5144C83.6761 82.9759 82.7518 83.6951 81.7247 83.6722C80.5762 83.6455 78.8668 83.0462 76.5964 81.8748C75.237 81.1466 74.0723 80.3866 73.1036 79.5941L70.8066 84.1547L71.6613 78.231C71.3972 77.9387 71.1596 77.645 70.9435 77.3445C69.1231 80.2653 67.9014 82.0494 67.282 82.6998C65.207 84.979 62.0827 86.314 59.3551 86.4516V86.4531C59.3203 86.4546 59.2848 86.4553 59.25 86.4568C59.1915 86.7431 59.1301 87.028 59.065 87.3129C58.937 87.8813 58.7993 88.4488 58.6521 89.0134C58.5677 89.3442 58.4604 89.6765 58.4338 90.0139C58.4219 90.1686 58.4426 90.3254 58.4722 90.5023C58.49 90.4986 58.5078 90.4949 58.5255 90.4905C58.5744 90.4801 58.6254 90.469 58.6802 90.4586C59.25 90.341 60.0943 90.176 61.1548 89.9947C61.2288 89.9821 61.3042 89.9688 61.3812 89.9562C61.6979 89.9022 62.0354 89.8474 62.3876 89.7926C62.4579 89.7808 62.5282 89.7712 62.5985 89.7593C62.6866 89.7453 62.7776 89.7327 62.8679 89.7187C62.9241 89.7098 62.9803 89.7024 63.0366 89.6927C63.559 89.615 64.1126 89.5366 64.6935 89.4619C64.8777 89.4374 65.0642 89.413 65.2529 89.3901C65.6488 89.3413 66.0565 89.2932 66.4754 89.2458C66.7536 89.2162 67.0363 89.1859 67.3234 89.1577C67.4944 89.14 67.6668 89.123 67.8422 89.1067C67.9473 89.0963 68.0531 89.086 68.1589 89.0771C68.5141 89.0453 68.8745 89.0142 69.2401 88.9853C69.4524 88.969 69.667 88.9535 69.8824 88.938C70.3552 88.9047 70.8355 88.8751 71.3224 88.8499C71.4593 88.8425 71.5955 88.8358 71.7324 88.8292C71.8537 88.8225 71.9751 88.8173 72.0965 88.8129C72.3888 88.8011 72.684 88.79 72.9815 88.7811C73.1221 88.7759 73.2612 88.7722 73.4033 88.7692C73.4951 88.767 73.5883 88.7655 73.6816 88.7626C73.8007 88.7604 73.9176 88.7574 74.0368 88.7559C74.1544 88.7537 74.2728 88.7522 74.392 88.7507C79.8628 88.693 85.7903 89.2821 90.655 91.334C91.1353 90.9174 90.8815 90.5393 90.7779 90.1589C89.9128 87.0021 89.3882 83.7824 89.1269 80.5198C89.1144 80.3637 89.0618 80.209 89.0285 80.0559C89.0618 80.0403 89.0951 80.0255 89.1292 80.01C89.1366 80.0063 89.1447 80.0026 89.1536 79.9981C89.1462 79.9404 89.138 79.882 89.1306 79.8228V79.8205C88.714 76.4477 88.6097 72.7122 89.1232 68.8465C89.1232 68.7658 89.1255 68.6866 89.1299 68.6075L89.1329 68.6097ZM80.1729 73.4566C79.6046 72.5524 78.9874 72.0906 78.3229 72.0758C77.0545 72.0455 76.0488 72.3555 75.3088 73.003C76.6401 74.2728 77.3934 74.9714 77.5725 75.0972C78.5538 75.815 79.7059 76.2649 81.032 76.4462C81.0283 75.3577 80.7405 74.3609 80.1721 73.4566H80.1729ZM80.1729 73.4566C79.6046 72.5524 78.9874 72.0906 78.3229 72.0758C77.0545 72.0455 76.0488 72.3555 75.3088 73.003C76.6401 74.2728 77.3934 74.9714 77.5725 75.0972C78.5538 75.815 79.7059 76.2649 81.032 76.4462C81.0283 75.3577 80.7405 74.3609 80.1721 73.4566H80.1729ZM89.1329 68.6097C89.1417 68.4254 89.1573 68.2434 89.1765 68.0643C89.2291 67.5915 89.3097 67.1304 89.3748 66.6702C89.7374 64.1764 90.2244 61.7041 91.0088 59.2999C91.0968 59.0305 91.0917 58.7264 91.1464 58.2935C90.6328 58.3815 90.2762 58.4393 89.921 58.5059C88.0532 58.8611 86.1869 59.2266 84.3162 59.5774C79.0362 60.7399 71.8034 61.505 64.3494 59.7535C62.4483 59.3983 60.619 58.881 58.8186 58.3253C58.7601 58.3623 58.7098 58.3993 58.6669 58.4378C59.9826 62.4988 62.0731 70.8245 60.8284 79.9589C62.4202 79.8723 63.952 79.5475 65.4209 78.9851C66.5797 78.5278 68.0346 77.0804 69.784 74.6413C71.4393 72.3518 72.4339 71.2122 72.7654 71.2204C72.9164 71.2226 73.0503 71.3328 73.165 71.5474C75.311 67.6973 77.5917 65.7999 80.0086 65.8562C81.9733 65.9021 83.4555 67.1312 84.4568 69.5428C85.3167 71.5881 85.7111 74.1211 85.6408 77.1425C85.6053 78.6817 85.2242 80.141 84.496 81.5144C83.6761 82.9759 82.7518 83.6951 81.7247 83.6722C80.5762 83.6455 78.8668 83.0462 76.5964 81.8748C75.237 81.1466 74.0723 80.3866 73.1036 79.5941L70.8066 84.1547L71.6613 78.231C71.3972 77.9387 71.1596 77.645 70.9435 77.3445C69.1231 80.2653 67.9014 82.0494 67.282 82.6998C65.207 84.979 62.0827 86.314 59.3551 86.4516V86.4531C59.3203 86.4546 59.2848 86.4553 59.25 86.4568C59.1915 86.7431 59.1301 87.028 59.065 87.3129C58.937 87.8813 58.7993 88.4488 58.6521 89.0134C58.5677 89.3442 58.4604 89.6765 58.4338 90.0139C58.4219 90.1686 58.4426 90.3254 58.4722 90.5023C58.49 90.4986 58.5078 90.4949 58.5255 90.4905C58.5744 90.4801 58.6254 90.469 58.6802 90.4586C59.25 90.341 60.0943 90.176 61.1548 89.9947C61.2288 89.9821 61.3042 89.9688 61.3812 89.9562C61.6979 89.9022 62.0354 89.8474 62.3876 89.7926C62.4579 89.7808 62.5282 89.7712 62.5985 89.7593C62.6866 89.7453 62.7776 89.7327 62.8679 89.7187C62.9241 89.7098 62.9803 89.7024 63.0366 89.6927C63.559 89.615 64.1126 89.5366 64.6935 89.4619C64.8777 89.4374 65.0642 89.413 65.2529 89.3901C65.6488 89.3413 66.0565 89.2932 66.4754 89.2458C66.7536 89.2162 67.0363 89.1859 67.3234 89.1577C67.4944 89.14 67.6668 89.123 67.8422 89.1067C67.9473 89.0963 68.0531 89.086 68.1589 89.0771C68.5141 89.0453 68.8745 89.0142 69.2401 88.9853C69.4524 88.969 69.667 88.9535 69.8824 88.938C70.3552 88.9047 70.8355 88.8751 71.3224 88.8499C71.4593 88.8425 71.5955 88.8358 71.7324 88.8292C71.8537 88.8225 71.9751 88.8173 72.0965 88.8129C72.3888 88.8011 72.684 88.79 72.9815 88.7811C73.1221 88.7759 73.2612 88.7722 73.4033 88.7692C73.4951 88.767 73.5883 88.7655 73.6816 88.7626C73.8007 88.7604 73.9176 88.7574 74.0368 88.7559C74.1544 88.7537 74.2728 88.7522 74.392 88.7507C79.8628 88.693 85.7903 89.2821 90.655 91.334C91.1353 90.9174 90.8815 90.5393 90.7779 90.1589C89.9128 87.0021 89.3882 83.7824 89.1269 80.5198C89.1144 80.3637 89.0618 80.209 89.0285 80.0559C89.0618 80.0403 89.0951 80.0255 89.1292 80.01C89.1366 80.0063 89.1447 80.0026 89.1536 79.9981C89.1462 79.9404 89.138 79.882 89.1306 79.8228V79.8205C88.714 76.4477 88.6097 72.7122 89.1232 68.8465C89.1232 68.7658 89.1255 68.6866 89.1299 68.6075L89.1329 68.6097ZM89.1329 68.6097C89.1417 68.4254 89.1573 68.2434 89.1765 68.0643C89.2291 67.5915 89.3097 67.1304 89.3748 66.6702C89.7374 64.1764 90.2244 61.7041 91.0088 59.2999C91.0968 59.0305 91.0917 58.7264 91.1464 58.2935C90.6328 58.3815 90.2762 58.4393 89.921 58.5059C88.0532 58.8611 86.1869 59.2266 84.3162 59.5774C79.0362 60.7399 71.8034 61.505 64.3494 59.7535C62.4483 59.3983 60.619 58.881 58.8186 58.3253C58.7601 58.3623 58.7098 58.3993 58.6669 58.4378C59.9826 62.4988 62.0731 70.8245 60.8284 79.9589C62.4202 79.8723 63.952 79.5475 65.4209 78.9851C66.5797 78.5278 68.0346 77.0804 69.784 74.6413C71.4393 72.3518 72.4339 71.2122 72.7654 71.2204C72.9164 71.2226 73.0503 71.3328 73.165 71.5474C75.311 67.6973 77.5917 65.7999 80.0086 65.8562C81.9733 65.9021 83.4555 67.1312 84.4568 69.5428C85.3167 71.5881 85.7111 74.1211 85.6408 77.1425C85.6053 78.6817 85.2242 80.141 84.496 81.5144C83.6761 82.9759 82.7518 83.6951 81.7247 83.6722C80.5762 83.6455 78.8668 83.0462 76.5964 81.8748C75.237 81.1466 74.0723 80.3866 73.1036 79.5941L70.8066 84.1547L71.6613 78.231C71.3972 77.9387 71.1596 77.645 70.9435 77.3445C69.1231 80.2653 67.9014 82.0494 67.282 82.6998C65.207 84.979 62.0827 86.314 59.3551 86.4516V86.4531C59.3203 86.4546 59.2848 86.4553 59.25 86.4568C59.1915 86.7431 59.1301 87.028 59.065 87.3129C58.937 87.8813 58.7993 88.4488 58.6521 89.0134C58.5677 89.3442 58.4604 89.6765 58.4338 90.0139C58.4219 90.1686 58.4426 90.3254 58.4722 90.5023C58.49 90.4986 58.5078 90.4949 58.5255 90.4905C58.5744 90.4801 58.6254 90.469 58.6802 90.4586C59.25 90.341 60.0943 90.176 61.1548 89.9947C61.2288 89.9821 61.3042 89.9688 61.3812 89.9562C61.6979 89.9022 62.0354 89.8474 62.3876 89.7926C62.4579 89.7808 62.5282 89.7712 62.5985 89.7593C62.6866 89.7453 62.7776 89.7327 62.8679 89.7187C62.9241 89.7098 62.9803 89.7024 63.0366 89.6927C63.559 89.615 64.1126 89.5366 64.6935 89.4619C64.8777 89.4374 65.0642 89.413 65.2529 89.3901C65.6488 89.3413 66.0565 89.2932 66.4754 89.2458C66.7536 89.2162 67.0363 89.1859 67.3234 89.1577C67.4944 89.14 67.6668 89.123 67.8422 89.1067C67.9473 89.0963 68.0531 89.086 68.1589 89.0771C68.5141 89.0453 68.8745 89.0142 69.2401 88.9853C69.4524 88.969 69.667 88.9535 69.8824 88.938C70.3552 88.9047 70.8355 88.8751 71.3224 88.8499C71.4593 88.8425 71.5955 88.8358 71.7324 88.8292C71.8537 88.8225 71.9751 88.8173 72.0965 88.8129C72.3888 88.8011 72.684 88.79 72.9815 88.7811C73.1221 88.7759 73.2612 88.7722 73.4033 88.7692C73.4951 88.767 73.5883 88.7655 73.6816 88.7626C73.8007 88.7604 73.9176 88.7574 74.0368 88.7559C74.1544 88.7537 74.2728 88.7522 74.392 88.7507C79.8628 88.693 85.7903 89.2821 90.655 91.334C91.1353 90.9174 90.8815 90.5393 90.7779 90.1589C89.9128 87.0021 89.3882 83.7824 89.1269 80.5198C89.1144 80.3637 89.0618 80.209 89.0285 80.0559C89.0618 80.0403 89.0951 80.0255 89.1292 80.01C89.1366 80.0063 89.1447 80.0026 89.1536 79.9981C89.1462 79.9404 89.138 79.882 89.1306 79.8228V79.8205C88.714 76.4477 88.6097 72.7122 89.1232 68.8465C89.1232 68.7658 89.1255 68.6866 89.1299 68.6075L89.1329 68.6097ZM80.1729 73.4566C79.6046 72.5524 78.9874 72.0906 78.3229 72.0758C77.0545 72.0455 76.0488 72.3555 75.3088 73.003C76.6401 74.2728 77.3934 74.9714 77.5725 75.0972C78.5538 75.815 79.7059 76.2649 81.032 76.4462C81.0283 75.3577 80.7405 74.3609 80.1721 73.4566H80.1729ZM80.1729 73.4566C79.6046 72.5524 78.9874 72.0906 78.3229 72.0758C77.0545 72.0455 76.0488 72.3555 75.3088 73.003C76.6401 74.2728 77.3934 74.9714 77.5725 75.0972C78.5538 75.815 79.7059 76.2649 81.032 76.4462C81.0283 75.3577 80.7405 74.3609 80.1721 73.4566H80.1729ZM89.1329 68.6097C89.1417 68.4254 89.1573 68.2434 89.1765 68.0643C89.2291 67.5915 89.3097 67.1304 89.3748 66.6702C89.7374 64.1764 90.2244 61.7041 91.0088 59.2999C91.0968 59.0305 91.0917 58.7264 91.1464 58.2935C90.6328 58.3815 90.2762 58.4393 89.921 58.5059C88.0532 58.8611 86.1869 59.2266 84.3162 59.5774C79.0362 60.7399 71.8034 61.505 64.3494 59.7535C62.4483 59.3983 60.619 58.881 58.8186 58.3253C58.7601 58.3623 58.7098 58.3993 58.6669 58.4378C59.9826 62.4988 62.0731 70.8245 60.8284 79.9589C62.4202 79.8723 63.952 79.5475 65.4209 78.9851C66.5797 78.5278 68.0346 77.0804 69.784 74.6413C71.4393 72.3518 72.4339 71.2122 72.7654 71.2204C72.9164 71.2226 73.0503 71.3328 73.165 71.5474C75.311 67.6973 77.5917 65.7999 80.0086 65.8562C81.9733 65.9021 83.4555 67.1312 84.4568 69.5428C85.3167 71.5881 85.7111 74.1211 85.6408 77.1425C85.6053 78.6817 85.2242 80.141 84.496 81.5144C83.6761 82.9759 82.7518 83.6951 81.7247 83.6722C80.5762 83.6455 78.8668 83.0462 76.5964 81.8748C75.237 81.1466 74.0723 80.3866 73.1036 79.5941L70.8066 84.1547L71.6613 78.231C71.3972 77.9387 71.1596 77.645 70.9435 77.3445C69.1231 80.2653 67.9014 82.0494 67.282 82.6998C65.207 84.979 62.0827 86.314 59.3551 86.4516V86.4531C59.3203 86.4546 59.2848 86.4553 59.25 86.4568C59.1915 86.7431 59.1301 87.028 59.065 87.3129C58.937 87.8813 58.7993 88.4488 58.6521 89.0134C58.5677 89.3442 58.4604 89.6765 58.4338 90.0139C58.4219 90.1686 58.4426 90.3254 58.4722 90.5023C58.49 90.4986 58.5078 90.4949 58.5255 90.4905C58.5744 90.4801 58.6254 90.469 58.6802 90.4586C59.25 90.341 60.0943 90.176 61.1548 89.9947C61.2288 89.9821 61.3042 89.9688 61.3812 89.9562C61.6979 89.9022 62.0354 89.8474 62.3876 89.7926C62.4579 89.7808 62.5282 89.7712 62.5985 89.7593C62.6866 89.7453 62.7776 89.7327 62.8679 89.7187C62.9241 89.7098 62.9803 89.7024 63.0366 89.6927C63.559 89.615 64.1126 89.5366 64.6935 89.4619C64.8777 89.4374 65.0642 89.413 65.2529 89.3901C65.6488 89.3413 66.0565 89.2932 66.4754 89.2458C66.7536 89.2162 67.0363 89.1859 67.3234 89.1577C67.4944 89.14 67.6668 89.123 67.8422 89.1067C67.9473 89.0963 68.0531 89.086 68.1589 89.0771C68.5141 89.0453 68.8745 89.0142 69.2401 88.9853C69.4524 88.969 69.667 88.9535 69.8824 88.938C70.3552 88.9047 70.8355 88.8751 71.3224 88.8499C71.4593 88.8425 71.5955 88.8358 71.7324 88.8292C71.8537 88.8225 71.9751 88.8173 72.0965 88.8129C72.3888 88.8011 72.684 88.79 72.9815 88.7811C73.1221 88.7759 73.2612 88.7722 73.4033 88.7692C73.4951 88.767 73.5883 88.7655 73.6816 88.7626C73.8007 88.7604 73.9176 88.7574 74.0368 88.7559C74.1544 88.7537 74.2728 88.7522 74.392 88.7507C79.8628 88.693 85.7903 89.2821 90.655 91.334C91.1353 90.9174 90.8815 90.5393 90.7779 90.1589C89.9128 87.0021 89.3882 83.7824 89.1269 80.5198C89.1144 80.3637 89.0618 80.209 89.0285 80.0559C89.0618 80.0403 89.0951 80.0255 89.1292 80.01C89.1366 80.0063 89.1447 80.0026 89.1536 79.9981C89.1462 79.9404 89.138 79.882 89.1306 79.8228V79.8205C88.714 76.4477 88.6097 72.7122 89.1232 68.8465C89.1232 68.7658 89.1255 68.6866 89.1299 68.6075L89.1329 68.6097ZM89.1329 68.6097C89.1417 68.4254 89.1573 68.2434 89.1765 68.0643C89.2291 67.5915 89.3097 67.1304 89.3748 66.6702C89.7374 64.1764 90.2244 61.7041 91.0088 59.2999C91.0968 59.0305 91.0917 58.7264 91.1464 58.2935C90.6328 58.3815 90.2762 58.4393 89.921 58.5059C88.0532 58.8611 86.1869 59.2266 84.3162 59.5774C79.0362 60.7399 71.8034 61.505 64.3494 59.7535C62.4483 59.3983 60.619 58.881 58.8186 58.3253C58.7601 58.3623 58.7098 58.3993 58.6669 58.4378C59.9826 62.4988 62.0731 70.8245 60.8284 79.9589C62.4202 79.8723 63.952 79.5475 65.4209 78.9851C66.5797 78.5278 68.0346 77.0804 69.784 74.6413C71.4393 72.3518 72.4339 71.2122 72.7654 71.2204C72.9164 71.2226 73.0503 71.3328 73.165 71.5474C75.311 67.6973 77.5917 65.7999 80.0086 65.8562C81.9733 65.9021 83.4555 67.1312 84.4568 69.5428C85.3167 71.5881 85.7111 74.1211 85.6408 77.1425C85.6053 78.6817 85.2242 80.141 84.496 81.5144C83.6761 82.9759 82.7518 83.6951 81.7247 83.6722C80.5762 83.6455 78.8668 83.0462 76.5964 81.8748C75.237 81.1466 74.0723 80.3866 73.1036 79.5941L70.8066 84.1547L71.6613 78.231C71.3972 77.9387 71.1596 77.645 70.9435 77.3445C69.1231 80.2653 67.9014 82.0494 67.282 82.6998C65.207 84.979 62.0827 86.314 59.3551 86.4516V86.4531C59.3203 86.4546 59.2848 86.4553 59.25 86.4568C59.1915 86.7431 59.1301 87.028 59.065 87.3129C58.937 87.8813 58.7993 88.4488 58.6521 89.0134C58.5677 89.3442 58.4604 89.6765 58.4338 90.0139C58.4219 90.1686 58.4426 90.3254 58.4722 90.5023C58.49 90.4986 58.5078 90.4949 58.5255 90.4905C58.5744 90.4801 58.6254 90.469 58.6802 90.4586C59.25 90.341 60.0943 90.176 61.1548 89.9947C61.2288 89.9821 61.3042 89.9688 61.3812 89.9562C61.6979 89.9022 62.0354 89.8474 62.3876 89.7926C62.4579 89.7808 62.5282 89.7712 62.5985 89.7593C62.6866 89.7453 62.7776 89.7327 62.8679 89.7187C62.9241 89.7098 62.9803 89.7024 63.0366 89.6927C63.559 89.615 64.1126 89.5366 64.6935 89.4619C64.8777 89.4374 65.0642 89.413 65.2529 89.3901C65.6488 89.3413 66.0565 89.2932 66.4754 89.2458C66.7536 89.2162 67.0363 89.1859 67.3234 89.1577C67.4944 89.14 67.6668 89.123 67.8422 89.1067C67.9473 89.0963 68.0531 89.086 68.1589 89.0771C68.5141 89.0453 68.8745 89.0142 69.2401 88.9853C69.4524 88.969 69.667 88.9535 69.8824 88.938C70.3552 88.9047 70.8355 88.8751 71.3224 88.8499C71.4593 88.8425 71.5955 88.8358 71.7324 88.8292C71.8537 88.8225 71.9751 88.8173 72.0965 88.8129C72.3888 88.8011 72.684 88.79 72.9815 88.7811C73.1221 88.7759 73.2612 88.7722 73.4033 88.7692C73.4951 88.767 73.5883 88.7655 73.6816 88.7626C73.8007 88.7604 73.9176 88.7574 74.0368 88.7559C74.1544 88.7537 74.2728 88.7522 74.392 88.7507C79.8628 88.693 85.7903 89.2821 90.655 91.334C91.1353 90.9174 90.8815 90.5393 90.7779 90.1589C89.9128 87.0021 89.3882 83.7824 89.1269 80.5198C89.1144 80.3637 89.0618 80.209 89.0285 80.0559C89.0618 80.0403 89.0951 80.0255 89.1292 80.01C89.1366 80.0063 89.1447 80.0026 89.1536 79.9981C89.1462 79.9404 89.138 79.882 89.1306 79.8228V79.8205C88.714 76.4477 88.6097 72.7122 89.1232 68.8465C89.1232 68.7658 89.1255 68.6866 89.1299 68.6075L89.1329 68.6097ZM81.0328 76.4462C81.0291 75.3577 80.7412 74.3609 80.1729 73.4566C79.6046 72.5524 78.9874 72.0906 78.3229 72.0758C77.0545 72.0455 76.0488 72.3555 75.3088 73.003C76.6401 74.2728 77.3934 74.9714 77.5725 75.0972C78.5538 75.815 79.7059 76.2649 81.032 76.4462H81.0328ZM74.7575 0C49.8379 24.7497 24.9204 49.4943 0 74.2425C24.7487 99.1609 49.496 124.08 74.2425 149C99.1622 124.252 124.081 99.5035 149 74.759C124.251 49.8398 99.5063 24.9199 74.7575 0.000739584V0ZM74.7509 1.19212C84.9237 11.4351 95.0041 21.584 105.157 31.8055C104.856 32.1467 104.622 32.47 104.328 32.7239C100.87 35.7053 96.917 37.5545 92.3423 38.0962C89.8447 38.3937 87.439 38.0843 85.0769 37.3451C84.2577 37.0898 83.4681 36.6591 82.7488 36.1848C80.8182 34.915 79.4728 33.2411 78.869 30.919C78.4539 29.3184 78.2955 27.8044 78.8793 26.2608C79.2116 25.3854 79.6356 24.564 80.5133 24.0697C81.6351 23.4399 82.7311 23.4821 83.7863 24.1525C84.7765 24.7808 85.0577 25.7916 85.0562 26.8964C85.051 27.9916 84.5959 28.9492 84.1008 29.8912C83.9706 30.1339 83.8352 30.3803 83.7249 30.586C83.699 31.2653 84.1593 31.5006 84.6218 31.6901C87.0431 32.6713 89.3563 32.3775 91.4195 30.8428C94.2263 28.7627 94.8701 25.3262 93.9873 22.8546C93.2384 20.7493 91.7717 19.3618 89.7456 18.553C89.0611 18.2785 88.307 18.0661 87.5774 18.041C86.7878 18.0143 85.9856 18.2186 85.1946 18.3592C84.8061 18.428 84.4316 18.5789 83.9454 18.7218C83.8877 18.226 83.8152 17.8338 83.7996 17.4401C83.7168 15.0092 82.831 12.9365 81.1845 11.125C79.6504 9.4371 77.7901 8.35893 75.6448 7.67814C74.9063 7.44282 74.2802 7.76472 73.6697 8.00151C70.7534 9.13074 68.5992 11.1006 67.4137 14.0369C66.8654 15.3962 66.5183 16.8126 66.4169 18.428C66.0121 18.3281 65.6325 18.2659 65.2773 18.1394C62.947 17.3284 60.787 17.6258 58.6979 18.9504C56.2567 20.4985 55.4619 24.0845 56.2285 26.5072C56.8139 28.3609 57.8625 29.852 59.5282 30.865C61.3205 31.9498 63.2357 32.2369 65.244 31.551C65.6014 31.4281 65.9019 31.1514 66.3096 30.8998C66.0787 30.4654 65.947 30.1139 65.7309 29.832C65.0516 28.9469 64.6387 27.9694 64.5188 26.8528C64.3538 25.3054 65.5193 23.5813 67.0334 23.2653C67.8444 23.0981 68.5718 23.3778 69.1964 23.9017C70.82 25.2581 71.3609 27.0585 71.184 29.0831C70.8873 32.5411 68.8752 34.8025 65.9448 36.3942C63.8558 37.5212 61.6076 37.8068 59.2722 37.8505C56.8013 37.8964 54.437 37.4598 52.1511 36.6014C49.422 35.578 46.9282 34.1232 44.7296 32.1962C44.5365 32.0238 44.4129 31.7707 44.2234 31.5103C54.4148 21.3909 64.5388 11.3344 74.7509 1.19212ZM82.5698 42.6989C82.4025 43.504 81.9082 43.6483 81.4146 43.6994C80.0234 43.8466 78.6337 43.9917 77.2358 44.0583C74.315 44.1915 71.3964 44.0265 68.4949 43.6779C67.8903 43.6076 67.1562 43.6853 66.8069 42.8077C67.0689 42.5753 67.3079 42.2941 67.6039 42.1025C69.966 40.5833 72.152 38.851 74.0264 36.7442C74.2255 36.5207 74.4874 36.3505 74.7982 36.0886C75.1231 36.352 75.4524 36.5333 75.6707 36.8056C77.1655 38.6712 79.0281 40.1082 80.9765 41.4535C81.5338 41.8383 82.0421 42.2853 82.5698 42.6989ZM31.7218 104.756C30.9463 104.364 1.92697 75.2348 1.31869 74.3039C1.62135 73.6512 30.5393 44.8553 31.4702 44.2884C32.2139 44.4557 32.6453 45.0691 33.0516 45.6271C34.357 47.4053 35.6475 49.2005 36.4933 51.2658C37.4576 53.6308 37.9778 56.072 37.9445 58.628C37.9378 59.0956 37.9445 59.5596 37.9652 60.0258C38.074 62.5832 37.274 64.8934 35.8088 66.9299C34.5457 68.6815 32.7948 69.8366 30.6754 70.4315C29.1962 70.8467 27.7487 70.9821 26.2702 70.5226C24.9507 70.1126 24.0509 69.2949 23.7556 67.9052C23.4323 66.3801 24.6052 64.6959 26.1562 64.4524C27.503 64.2378 28.747 64.5227 29.9236 65.1969C31.5013 66.1011 31.8284 65.9598 32.2413 64.1675C33.2085 60.0014 30.21 55.7398 25.801 55.6806C21.7828 55.6273 17.9977 58.8322 18.5149 63.5807C18.566 64.0728 18.6274 64.5634 18.6888 65.0999C18.0842 65.2146 17.4826 65.35 16.8773 65.4462C13.4037 65.9916 10.7552 67.8046 8.9363 70.7734C8.3739 71.6895 8.0446 72.7521 7.66349 73.7667C7.55471 74.0642 7.56877 74.4541 7.65165 74.7657C8.40128 77.5495 9.77103 79.936 12.196 81.6091C13.7389 82.671 15.4757 83.2186 17.3087 83.5064C17.6425 83.5597 17.9792 83.6063 18.3943 83.6677C18.3011 84.2538 18.1819 84.7911 18.1353 85.3335C18.0576 86.1985 17.9362 87.071 17.988 87.9294C18.1131 89.9732 19.1084 91.522 20.7386 92.7741C21.7339 93.5392 22.7929 93.7057 23.9517 93.7235C25.9638 93.7516 27.8612 93.3772 29.4618 92.0681C31.5235 90.3765 32.8577 87.1635 31.6952 84.1413C31.3681 83.2918 31.018 83.1638 30.2033 83.6626C29.0985 84.3411 27.9396 84.834 26.6143 84.8184C25.3252 84.8044 24.1996 84.108 23.7704 83.0543C23.3324 81.9828 23.6439 80.582 24.5844 79.7162C26.0023 78.4064 27.7309 77.958 29.6024 78.2059C33.2011 78.6876 35.4115 80.9157 36.836 84.1006C38.239 87.2412 38.202 90.4949 37.67 93.7967C37.0557 97.604 35.2346 100.818 32.797 103.721C32.4699 104.114 32.0563 104.438 31.7203 104.757L31.7218 104.756ZM41.9013 67.7831C42.3113 67.0905 42.3238 67.0971 42.9965 66.884C43.5449 67.1001 43.6351 67.6248 43.7091 68.1006C44.2049 71.3062 44.2952 74.5281 43.9748 77.7589C43.8557 78.9636 43.6862 80.1646 43.5382 81.3656C43.4938 81.7157 43.4324 82.0672 43.0283 82.1715C42.5814 82.2877 42.3497 81.9584 42.1159 81.6653C42.0404 81.5684 41.9879 81.4507 41.9331 81.3383C40.8956 79.1841 39.4659 77.3283 37.7299 75.6855C36.5377 74.5533 36.5377 74.5303 37.7055 73.3515C39.3572 71.6843 40.7114 69.7974 41.9013 67.7839V67.7831ZM74.2699 147.773C74.0064 147.562 73.7304 147.379 73.501 147.149C63.9105 137.499 54.3223 127.844 44.7385 118.191C44.5446 117.994 44.3744 117.774 44.2005 117.572C44.3589 116.89 44.8798 116.557 45.3364 116.215C48.6131 113.794 52.1815 112.03 56.2544 111.428C60.0233 110.869 63.562 111.449 66.7803 113.594C70.2768 115.922 71.3772 120.38 70.3175 123.245C70.0082 124.087 69.5449 124.81 68.8523 125.366C66.963 126.884 64.8037 125.732 64.3338 123.8C63.9749 122.34 64.302 120.963 64.971 119.651C65.0413 119.511 65.1278 119.38 65.1959 119.241C65.5548 118.501 65.4312 118.089 64.6846 117.732C63.6523 117.24 62.5497 117.011 61.4167 117.133C57.8972 117.513 55.3176 119.864 54.8477 123.282C54.2305 127.758 57.2379 130.81 61.3405 131.217C62.244 131.307 63.1801 131.032 64.1015 130.917C64.3738 130.885 64.6409 130.822 64.9932 130.761C65.0672 131.241 65.1671 131.661 65.2004 132.088C65.4327 135.104 66.7485 137.521 69.098 139.429C70.3797 140.469 71.8101 141.183 73.3663 141.659C73.76 141.778 74.2366 141.801 74.6376 141.706C76.9398 141.152 78.829 139.903 80.4622 138.201C82.2331 136.358 82.9686 134.093 83.3149 131.644C83.3379 131.494 83.3505 131.343 83.3838 131.083C83.7515 131.186 84.0675 131.272 84.3857 131.364C86.6383 132.004 88.7777 131.772 90.7239 130.439C95.4917 127.182 94.2803 121.222 90.8378 118.895C88.7962 117.518 86.6235 117.365 84.3287 117.886C83.9543 117.969 83.6198 118.225 83.1521 118.461C83.4866 119.173 83.7848 119.804 84.0808 120.436C84.584 121.515 84.6914 122.628 84.4605 123.8C84.0194 126.046 81.9896 126.595 80.2328 125.562C78.7151 124.673 78.0839 123.23 78.0365 121.572C77.924 117.962 79.6297 115.305 82.6674 113.512C85.404 111.903 88.4047 111.446 91.5645 111.633C96.2835 111.907 100.24 113.875 103.811 116.808C104.07 117.021 104.289 117.283 104.629 117.624C94.4735 127.71 84.4116 137.702 74.2713 147.77L74.2699 147.773ZM66.3562 105.823C68.2928 104.446 80.6842 104.966 82.3344 106.447C82.4121 106.948 82.0569 107.193 81.698 107.363C79.1058 108.574 76.8725 110.289 74.7864 112.217C74.6983 112.298 74.574 112.335 74.4401 112.404C74.2728 112.326 74.0634 112.289 73.9531 112.165C71.799 109.754 69.1942 107.919 66.4843 106.206C66.4073 106.157 66.4066 105.985 66.3555 105.823H66.3562ZM49.7365 70.2665C49.7106 70.2717 49.6854 70.2687 49.6788 70.2665C49.1741 67.4879 48.7204 64.7018 48.1536 61.9409C47.5749 59.1274 46.4723 56.4835 45.3031 53.8698C44.1443 51.2776 42.7619 48.7994 41.0703 46.5254C39.3956 44.2707 37.5775 42.1217 35.7874 39.8833C37.2045 38.478 38.5631 37.1261 40.0298 35.6712C40.4997 36.0301 40.9933 36.338 41.407 36.7302C44.9102 40.0468 48.7493 42.8891 53.1338 44.9256C55.3309 45.9453 57.5591 46.9479 59.8642 47.6643C62.4705 48.4731 65.1197 49.2175 67.8614 49.4846C68.4719 49.5431 69.078 49.6415 69.7854 49.7429L79.4144 49.6371C79.4077 49.6297 79.4003 49.6215 79.3937 49.6141C85.0865 48.7927 90.4353 47.514 95.5124 45.1942C100.565 42.8898 105.097 39.8181 109.186 36.1774C109.954 36.4697 112.849 39.2802 113.506 40.3435C112.963 40.9992 112.382 41.6748 111.826 42.3711C110.546 43.9769 109.235 45.5545 108.02 47.2062C106.152 49.7444 104.562 52.4712 103.331 55.3609C101.8 58.9698 100.542 62.6898 100.024 66.611C99.8666 67.7964 99.7349 68.9856 99.5662 70.3901L99.2324 79.6008C99.9214 83.3237 100.244 86.991 101.538 90.4431C102.841 93.9144 104.327 97.2969 106.265 100.471C108.186 103.615 110.59 106.378 113.003 109.079C112.669 109.802 109.89 112.66 108.776 113.424C108.502 113.238 108.15 113.056 107.875 112.791C103.684 108.755 98.9106 105.596 93.6136 103.213C89.9291 101.556 86.0744 100.471 82.0732 99.9157C81.4649 99.8299 80.8544 99.7751 80.2106 99.7189H80.2084L79.4891 99.7544L69.0898 99.7544C68.8737 99.7944 68.6628 99.8269 68.4497 99.8476C64.971 100.175 61.5736 100.884 58.265 102.007C55.6373 102.897 53.0998 104.003 50.6652 105.322C47.6312 106.97 44.7229 108.801 42.1951 111.196C41.4684 111.886 40.7388 112.644 39.699 113.025C38.3996 111.717 37.1194 110.426 35.8547 109.154C35.9827 108.402 36.4312 107.928 36.8715 107.447C40.9023 103.05 44.142 98.1449 46.3806 92.6017C47.5853 89.6202 48.4666 86.5485 48.9432 83.3636C49.1467 82.022 49.3546 80.6797 49.5692 79.2752M110.572 72.6967C110.943 73.2265 111.433 73.6742 111.872 74.1567C112.435 74.7701 112.456 74.9854 111.902 75.5693C109.946 77.6324 108.325 79.9412 106.855 82.3631C106.733 82.5689 106.566 82.7502 106.424 82.9403C105.849 82.8649 105.743 82.5555 105.707 82.1929C105.503 80.2157 105.117 78.2377 105.133 76.2641C105.155 73.6668 105.166 71.0391 105.792 68.4824C105.91 68.0059 105.958 67.4768 106.684 67.2918C106.868 67.4768 107.133 67.6773 107.312 67.937C108.406 69.5199 109.461 71.1257 110.571 72.6959L110.572 72.6967ZM117.376 104.769C116.588 104.316 115.974 103.599 115.436 102.86C113.635 100.389 112.436 97.6351 111.801 94.6433C111.156 91.6027 111.225 88.5842 112.176 85.6087C112.874 83.4398 114.133 81.5987 115.971 80.3008C118.35 78.6269 120.973 77.9706 123.796 79.321C124.651 79.7295 125.267 80.3903 125.71 81.1762C126.374 82.3543 125.682 84.0977 124.363 84.72C123.401 85.1758 122.388 85.3105 121.366 85.0123C120.531 84.7718 119.718 84.4544 118.912 84.128C117.975 83.7499 117.514 83.9386 117.24 84.8969C116.453 87.6371 116.855 90.1782 118.789 92.3005C120.861 94.5678 123.919 95.4025 126.983 94.1186C129.414 93.1026 131.032 91.303 131.259 88.5931C131.346 87.5416 131.023 86.4508 130.868 85.3764C130.824 85.0759 130.717 84.7807 130.628 84.4359C131.34 84.3056 131.994 84.151 132.659 84.0681C136.265 83.6093 138.836 81.652 140.598 78.5507C140.949 77.9336 141.252 77.2772 141.509 76.6142C141.837 75.7646 141.702 74.9151 141.433 74.0575C140.155 69.9668 137.527 67.2932 133.324 66.2476C132.513 66.0493 131.7 65.8517 130.871 65.6475C131.016 64.4428 131.24 63.3417 131.259 62.2361C131.287 60.5986 130.739 59.12 129.657 57.868C128.552 56.5893 127.26 55.594 125.537 55.332C123.475 55.0175 121.608 55.4549 119.903 56.7143C117.121 58.7649 116.658 61.5472 117.243 64.6974C117.272 64.8468 117.34 64.9926 117.395 65.1391C117.793 66.1729 118.102 66.2721 119.036 65.686C120.412 64.8246 121.843 64.2489 123.533 64.5205C124.631 64.6966 125.381 65.1939 125.755 66.2402C126.133 67.3006 125.938 68.2538 125.22 69.1188C124.135 70.4234 122.64 70.786 121.062 70.9266C117.692 71.2278 114.166 68.6297 112.813 65.5639C111.932 63.5711 111.561 61.491 111.47 59.3243C111.3 55.3764 112.277 51.7497 114.394 48.4294C115.146 47.2543 115.99 46.1391 116.811 45.0107C116.986 44.7665 117.238 44.5748 117.439 44.372C118.181 44.7324 147.008 73.7119 147.658 74.7287C147.297 75.4694 118.22 104.353 117.375 104.769H117.376ZM84.3162 59.5774C79.0362 60.7399 71.8034 61.505 64.3494 59.7535C62.4483 59.3983 60.619 58.881 58.8186 58.3253C58.7601 58.3623 58.7098 58.3993 58.6669 58.4378C59.9826 62.4988 62.0731 70.8245 60.8284 79.9589C62.4202 79.8723 63.952 79.5475 65.4209 78.9851C66.5797 78.5278 68.0346 77.0804 69.784 74.6413C71.4393 72.3518 72.4339 71.2122 72.7654 71.2204C72.9164 71.2226 73.0503 71.3328 73.165 71.5474C75.311 67.6973 77.5917 65.7999 80.0086 65.8562C81.9733 65.9021 83.4555 67.1312 84.4568 69.5428C85.3167 71.5881 85.7111 74.1211 85.6408 77.1425C85.6053 78.6817 85.2242 80.141 84.496 81.5144C83.6761 82.9759 82.7518 83.6951 81.7247 83.6722C80.5762 83.6455 78.8668 83.0462 76.5964 81.8748C75.237 81.1466 74.0723 80.3866 73.1036 79.5941L70.8066 84.1547L71.6613 78.231C71.3972 77.9387 71.1596 77.645 70.9435 77.3445C69.1231 80.2653 67.9014 82.0494 67.282 82.6998C65.207 84.979 62.0827 86.314 59.3551 86.4516V86.4531C59.3203 86.4546 59.2848 86.4553 59.25 86.4568C59.1915 86.7431 59.1301 87.028 59.065 87.3129C58.937 87.8813 58.7993 88.4488 58.6521 89.0134C58.5677 89.3442 58.4604 89.6765 58.4338 90.0139C58.4219 90.1686 58.4426 90.3254 58.4722 90.5023C58.49 90.4986 58.5078 90.4949 58.5255 90.4905C58.5744 90.4801 58.6254 90.469 58.6802 90.4586C59.25 90.341 60.0943 90.176 61.1548 89.9947C61.2288 89.9821 61.3042 89.9688 61.3812 89.9562C61.6979 89.9022 62.0354 89.8474 62.3876 89.7926C62.4579 89.7808 62.5282 89.7712 62.5985 89.7593C62.6866 89.7453 62.7776 89.7327 62.8679 89.7187C62.9241 89.7098 62.9803 89.7024 63.0366 89.6927C63.559 89.615 64.1126 89.5366 64.6935 89.4619C64.8777 89.4374 65.0642 89.413 65.2529 89.3901C65.6488 89.3413 66.0565 89.2932 66.4754 89.2458C66.7536 89.2162 67.0363 89.1859 67.3234 89.1577C67.4944 89.14 67.6668 89.123 67.8422 89.1067C67.9473 89.0963 68.0531 89.086 68.1589 89.0771C68.5141 89.0453 68.8745 89.0142 69.2401 88.9853C69.4524 88.969 69.667 88.9535 69.8824 88.938C70.3552 88.9047 70.8355 88.8751 71.3224 88.8499C71.4593 88.8425 71.5955 88.8358 71.7324 88.8292C71.8537 88.8225 71.9751 88.8173 72.0965 88.8129C72.3888 88.8011 72.684 88.79 72.9815 88.7811C73.1221 88.7759 73.2612 88.7722 73.4033 88.7692C73.4951 88.767 73.5883 88.7655 73.6816 88.7626C73.8007 88.7604 73.9176 88.7574 74.0368 88.7559C74.1544 88.7537 74.2728 88.7522 74.392 88.7507C79.8628 88.693 85.7903 89.2821 90.655 91.334C91.1353 90.9174 90.8815 90.5393 90.7779 90.1589C89.9128 87.0021 89.3882 83.7824 89.1269 80.5198C89.1144 80.3637 89.0618 80.209 89.0285 80.0559C89.0618 80.0403 89.0951 80.0255 89.1292 80.01C89.1366 80.0063 89.1447 80.0026 89.1536 79.9981C89.1462 79.9404 89.138 79.882 89.1306 79.8228V79.8205C88.714 76.4477 88.6097 72.7122 89.1232 68.8465C89.1232 68.7658 89.1255 68.6866 89.1299 68.6075C89.1388 68.4232 89.1543 68.2412 89.1736 68.0621C89.2261 67.5892 89.3068 67.1282 89.3719 66.668C89.7345 64.1742 90.2214 61.7019 91.0058 59.2976C91.0939 59.0283 91.0887 58.7242 91.1435 58.2913C90.6299 58.3793 90.2732 58.437 89.918 58.5036C88.0502 58.8588 86.1839 59.2244 84.3132 59.5751L84.3162 59.5774ZM81.0328 76.4462C81.0291 75.3577 80.7412 74.3609 80.1729 73.4566C79.6046 72.5524 78.9874 72.0906 78.3229 72.0758C77.0545 72.0455 76.0488 72.3555 75.3088 73.003C76.6401 74.2728 77.3934 74.9714 77.5725 75.0972C78.5538 75.815 79.7059 76.2649 81.032 76.4462H81.0328ZM80.1729 73.4566C79.6046 72.5524 78.9874 72.0906 78.3229 72.0758C77.0545 72.0455 76.0488 72.3555 75.3088 73.003C76.6401 74.2728 77.3934 74.9714 77.5725 75.0972C78.5538 75.815 79.7059 76.2649 81.032 76.4462C81.0283 75.3577 80.7405 74.3609 80.1721 73.4566H80.1729ZM89.1329 68.6097C89.1417 68.4254 89.1573 68.2434 89.1765 68.0643C89.2291 67.5915 89.3097 67.1304 89.3748 66.6702C89.7374 64.1764 90.2244 61.7041 91.0088 59.2999C91.0968 59.0305 91.0917 58.7264 91.1464 58.2935C90.6328 58.3815 90.2762 58.4393 89.921 58.5059C88.0532 58.8611 86.1869 59.2266 84.3162 59.5774C79.0362 60.7399 71.8034 61.505 64.3494 59.7535C62.4483 59.3983 60.619 58.881 58.8186 58.3253C58.7601 58.3623 58.7098 58.3993 58.6669 58.4378C59.9826 62.4988 62.0731 70.8245 60.8284 79.9589C62.4202 79.8723 63.952 79.5475 65.4209 78.9851C66.5797 78.5278 68.0346 77.0804 69.784 74.6413C71.4393 72.3518 72.4339 71.2122 72.7654 71.2204C72.9164 71.2226 73.0503 71.3328 73.165 71.5474C75.311 67.6973 77.5917 65.7999 80.0086 65.8562C81.9733 65.9021 83.4555 67.1312 84.4568 69.5428C85.3167 71.5881 85.7111 74.1211 85.6408 77.1425C85.6053 78.6817 85.2242 80.141 84.496 81.5144C83.6761 82.9759 82.7518 83.6951 81.7247 83.6722C80.5762 83.6455 78.8668 83.0462 76.5964 81.8748C75.237 81.1466 74.0723 80.3866 73.1036 79.5941L70.8066 84.1547L71.6613 78.231C71.3972 77.9387 71.1596 77.645 70.9435 77.3445C69.1231 80.2653 67.9014 82.0494 67.282 82.6998C65.207 84.979 62.0827 86.314 59.3551 86.4516V86.4531C59.3203 86.4546 59.2848 86.4553 59.25 86.4568C59.1915 86.7431 59.1301 87.028 59.065 87.3129C58.937 87.8813 58.7993 88.4488 58.6521 89.0134C58.5677 89.3442 58.4604 89.6765 58.4338 90.0139C58.4219 90.1686 58.4426 90.3254 58.4722 90.5023C58.49 90.4986 58.5078 90.4949 58.5255 90.4905C58.5744 90.4801 58.6254 90.469 58.6802 90.4586C59.25 90.341 60.0943 90.176 61.1548 89.9947C61.2288 89.9821 61.3042 89.9688 61.3812 89.9562C61.6979 89.9022 62.0354 89.8474 62.3876 89.7926C62.4579 89.7808 62.5282 89.7712 62.5985 89.7593C62.6866 89.7453 62.7776 89.7327 62.8679 89.7187C62.9241 89.7098 62.9803 89.7024 63.0366 89.6927C63.559 89.615 64.1126 89.5366 64.6935 89.4619C64.8777 89.4374 65.0642 89.413 65.2529 89.3901C65.6488 89.3413 66.0565 89.2932 66.4754 89.2458C66.7536 89.2162 67.0363 89.1859 67.3234 89.1577C67.4944 89.14 67.6668 89.123 67.8422 89.1067C67.9473 89.0963 68.0531 89.086 68.1589 89.0771C68.5141 89.0453 68.8745 89.0142 69.2401 88.9853C69.4524 88.969 69.667 88.9535 69.8824 88.938C70.3552 88.9047 70.8355 88.8751 71.3224 88.8499C71.4593 88.8425 71.5955 88.8358 71.7324 88.8292C71.8537 88.8225 71.9751 88.8173 72.0965 88.8129C72.3888 88.8011 72.684 88.79 72.9815 88.7811C73.1221 88.7759 73.2612 88.7722 73.4033 88.7692C73.4951 88.767 73.5883 88.7655 73.6816 88.7626C73.8007 88.7604 73.9176 88.7574 74.0368 88.7559C74.1544 88.7537 74.2728 88.7522 74.392 88.7507C79.8628 88.693 85.7903 89.2821 90.655 91.334C91.1353 90.9174 90.8815 90.5393 90.7779 90.1589C89.9128 87.0021 89.3882 83.7824 89.1269 80.5198C89.1144 80.3637 89.0618 80.209 89.0285 80.0559C89.0618 80.0403 89.0951 80.0255 89.1292 80.01C89.1366 80.0063 89.1447 80.0026 89.1536 79.9981C89.1462 79.9404 89.138 79.882 89.1306 79.8228V79.8205C88.714 76.4477 88.6097 72.7122 89.1232 68.8465C89.1232 68.7658 89.1255 68.6866 89.1299 68.6075L89.1329 68.6097ZM89.1329 68.6097C89.1417 68.4254 89.1573 68.2434 89.1765 68.0643C89.2291 67.5915 89.3097 67.1304 89.3748 66.6702C89.7374 64.1764 90.2244 61.7041 91.0088 59.2999C91.0968 59.0305 91.0917 58.7264 91.1464 58.2935C90.6328 58.3815 90.2762 58.4393 89.921 58.5059C88.0532 58.8611 86.1869 59.2266 84.3162 59.5774C79.0362 60.7399 71.8034 61.505 64.3494 59.7535C62.4483 59.3983 60.619 58.881 58.8186 58.3253C58.7601 58.3623 58.7098 58.3993 58.6669 58.4378C59.9826 62.4988 62.0731 70.8245 60.8284 79.9589C62.4202 79.8723 63.952 79.5475 65.4209 78.9851C66.5797 78.5278 68.0346 77.0804 69.784 74.6413C71.4393 72.3518 72.4339 71.2122 72.7654 71.2204C72.9164 71.2226 73.0503 71.3328 73.165 71.5474C75.311 67.6973 77.5917 65.7999 80.0086 65.8562C81.9733 65.9021 83.4555 67.1312 84.4568 69.5428C85.3167 71.5881 85.7111 74.1211 85.6408 77.1425C85.6053 78.6817 85.2242 80.141 84.496 81.5144C83.6761 82.9759 82.7518 83.6951 81.7247 83.6722C80.5762 83.6455 78.8668 83.0462 76.5964 81.8748C75.237 81.1466 74.0723 80.3866 73.1036 79.5941L70.8066 84.1547L71.6613 78.231C71.3972 77.9387 71.1596 77.645 70.9435 77.3445C69.1231 80.2653 67.9014 82.0494 67.282 82.6998C65.207 84.979 62.0827 86.314 59.3551 86.4516V86.4531C59.3203 86.4546 59.2848 86.4553 59.25 86.4568C59.1915 86.7431 59.1301 87.028 59.065 87.3129C58.937 87.8813 58.7993 88.4488 58.6521 89.0134C58.5677 89.3442 58.4604 89.6765 58.4338 90.0139C58.4219 90.1686 58.4426 90.3254 58.4722 90.5023C58.49 90.4986 58.5078 90.4949 58.5255 90.4905C58.5744 90.4801 58.6254 90.469 58.6802 90.4586C59.25 90.341 60.0943 90.176 61.1548 89.9947C61.2288 89.9821 61.3042 89.9688 61.3812 89.9562C61.6979 89.9022 62.0354 89.8474 62.3876 89.7926C62.4579 89.7808 62.5282 89.7712 62.5985 89.7593C62.6866 89.7453 62.7776 89.7327 62.8679 89.7187C62.9241 89.7098 62.9803 89.7024 63.0366 89.6927C63.559 89.615 64.1126 89.5366 64.6935 89.4619C64.8777 89.4374 65.0642 89.413 65.2529 89.3901C65.6488 89.3413 66.0565 89.2932 66.4754 89.2458C66.7536 89.2162 67.0363 89.1859 67.3234 89.1577C67.4944 89.14 67.6668 89.123 67.8422 89.1067C67.9473 89.0963 68.0531 89.086 68.1589 89.0771C68.5141 89.0453 68.8745 89.0142 69.2401 88.9853C69.4524 88.969 69.667 88.9535 69.8824 88.938C70.3552 88.9047 70.8355 88.8751 71.3224 88.8499C71.4593 88.8425 71.5955 88.8358 71.7324 88.8292C71.8537 88.8225 71.9751 88.8173 72.0965 88.8129C72.3888 88.8011 72.684 88.79 72.9815 88.7811C73.1221 88.7759 73.2612 88.7722 73.4033 88.7692C73.4951 88.767 73.5883 88.7655 73.6816 88.7626C73.8007 88.7604 73.9176 88.7574 74.0368 88.7559C74.1544 88.7537 74.2728 88.7522 74.392 88.7507C79.8628 88.693 85.7903 89.2821 90.655 91.334C91.1353 90.9174 90.8815 90.5393 90.7779 90.1589C89.9128 87.0021 89.3882 83.7824 89.1269 80.5198C89.1144 80.3637 89.0618 80.209 89.0285 80.0559C89.0618 80.0403 89.0951 80.0255 89.1292 80.01C89.1366 80.0063 89.1447 80.0026 89.1536 79.9981C89.1462 79.9404 89.138 79.882 89.1306 79.8228V79.8205C88.714 76.4477 88.6097 72.7122 89.1232 68.8465C89.1232 68.7658 89.1255 68.6866 89.1299 68.6075L89.1329 68.6097ZM80.1729 73.4566C79.6046 72.5524 78.9874 72.0906 78.3229 72.0758C77.0545 72.0455 76.0488 72.3555 75.3088 73.003C76.6401 74.2728 77.3934 74.9714 77.5725 75.0972C78.5538 75.815 79.7059 76.2649 81.032 76.4462C81.0283 75.3577 80.7405 74.3609 80.1721 73.4566H80.1729ZM80.1729 73.4566C79.6046 72.5524 78.9874 72.0906 78.3229 72.0758C77.0545 72.0455 76.0488 72.3555 75.3088 73.003C76.6401 74.2728 77.3934 74.9714 77.5725 75.0972C78.5538 75.815 79.7059 76.2649 81.032 76.4462C81.0283 75.3577 80.7405 74.3609 80.1721 73.4566H80.1729ZM89.1329 68.6097C89.1417 68.4254 89.1573 68.2434 89.1765 68.0643C89.2291 67.5915 89.3097 67.1304 89.3748 66.6702C89.7374 64.1764 90.2244 61.7041 91.0088 59.2999C91.0968 59.0305 91.0917 58.7264 91.1464 58.2935C90.6328 58.3815 90.2762 58.4393 89.921 58.5059C88.0532 58.8611 86.1869 59.2266 84.3162 59.5774C79.0362 60.7399 71.8034 61.505 64.3494 59.7535C62.4483 59.3983 60.619 58.881 58.8186 58.3253C58.7601 58.3623 58.7098 58.3993 58.6669 58.4378C59.9826 62.4988 62.0731 70.8245 60.8284 79.9589C62.4202 79.8723 63.952 79.5475 65.4209 78.9851C66.5797 78.5278 68.0346 77.0804 69.784 74.6413C71.4393 72.3518 72.4339 71.2122 72.7654 71.2204C72.9164 71.2226 73.0503 71.3328 73.165 71.5474C75.311 67.6973 77.5917 65.7999 80.0086 65.8562C81.9733 65.9021 83.4555 67.1312 84.4568 69.5428C85.3167 71.5881 85.7111 74.1211 85.6408 77.1425C85.6053 78.6817 85.2242 80.141 84.496 81.5144C83.6761 82.9759 82.7518 83.6951 81.7247 83.6722C80.5762 83.6455 78.8668 83.0462 76.5964 81.8748C75.237 81.1466 74.0723 80.3866 73.1036 79.5941L70.8066 84.1547L71.6613 78.231C71.3972 77.9387 71.1596 77.645 70.9435 77.3445C69.1231 80.2653 67.9014 82.0494 67.282 82.6998C65.207 84.979 62.0827 86.314 59.3551 86.4516V86.4531C59.3203 86.4546 59.2848 86.4553 59.25 86.4568C59.1915 86.7431 59.1301 87.028 59.065 87.3129C58.937 87.8813 58.7993 88.4488 58.6521 89.0134C58.5677 89.3442 58.4604 89.6765 58.4338 90.0139C58.4219 90.1686 58.4426 90.3254 58.4722 90.5023C58.49 90.4986 58.5078 90.4949 58.5255 90.4905C58.5744 90.4801 58.6254 90.469 58.6802 90.4586C59.25 90.341 60.0943 90.176 61.1548 89.9947C61.2288 89.9821 61.3042 89.9688 61.3812 89.9562C61.6979 89.9022 62.0354 89.8474 62.3876 89.7926C62.4579 89.7808 62.5282 89.7712 62.5985 89.7593C62.6866 89.7453 62.7776 89.7327 62.8679 89.7187C62.9241 89.7098 62.9803 89.7024 63.0366 89.6927C63.559 89.615 64.1126 89.5366 64.6935 89.4619C64.8777 89.4374 65.0642 89.413 65.2529 89.3901C65.6488 89.3413 66.0565 89.2932 66.4754 89.2458C66.7536 89.2162 67.0363 89.1859 67.3234 89.1577C67.4944 89.14 67.6668 89.123 67.8422 89.1067C67.9473 89.0963 68.0531 89.086 68.1589 89.0771C68.5141 89.0453 68.8745 89.0142 69.2401 88.9853C69.4524 88.969 69.667 88.9535 69.8824 88.938C70.3552 88.9047 70.8355 88.8751 71.3224 88.8499C71.4593 88.8425 71.5955 88.8358 71.7324 88.8292C71.8537 88.8225 71.9751 88.8173 72.0965 88.8129C72.3888 88.8011 72.684 88.79 72.9815 88.7811C73.1221 88.7759 73.2612 88.7722 73.4033 88.7692C73.4951 88.767 73.5883 88.7655 73.6816 88.7626C73.8007 88.7604 73.9176 88.7574 74.0368 88.7559C74.1544 88.7537 74.2728 88.7522 74.392 88.7507C79.8628 88.693 85.7903 89.2821 90.655 91.334C91.1353 90.9174 90.8815 90.5393 90.7779 90.1589C89.9128 87.0021 89.3882 83.7824 89.1269 80.5198C89.1144 80.3637 89.0618 80.209 89.0285 80.0559C89.0618 80.0403 89.0951 80.0255 89.1292 80.01C89.1366 80.0063 89.1447 80.0026 89.1536 79.9981C89.1462 79.9404 89.138 79.882 89.1306 79.8228V79.8205C88.714 76.4477 88.6097 72.7122 89.1232 68.8465C89.1232 68.7658 89.1255 68.6866 89.1299 68.6075L89.1329 68.6097ZM89.1329 68.6097C89.1417 68.4254 89.1573 68.2434 89.1765 68.0643C89.2291 67.5915 89.3097 67.1304 89.3748 66.6702C89.7374 64.1764 90.2244 61.7041 91.0088 59.2999C91.0968 59.0305 91.0917 58.7264 91.1464 58.2935C90.6328 58.3815 90.2762 58.4393 89.921 58.5059C88.0532 58.8611 86.1869 59.2266 84.3162 59.5774C79.0362 60.7399 71.8034 61.505 64.3494 59.7535C62.4483 59.3983 60.619 58.881 58.8186 58.3253C58.7601 58.3623 58.7098 58.3993 58.6669 58.4378C59.9826 62.4988 62.0731 70.8245 60.8284 79.9589C62.4202 79.8723 63.952 79.5475 65.4209 78.9851C66.5797 78.5278 68.0346 77.0804 69.784 74.6413C71.4393 72.3518 72.4339 71.2122 72.7654 71.2204C72.9164 71.2226 73.0503 71.3328 73.165 71.5474C75.311 67.6973 77.5917 65.7999 80.0086 65.8562C81.9733 65.9021 83.4555 67.1312 84.4568 69.5428C85.3167 71.5881 85.7111 74.1211 85.6408 77.1425C85.6053 78.6817 85.2242 80.141 84.496 81.5144C83.6761 82.9759 82.7518 83.6951 81.7247 83.6722C80.5762 83.6455 78.8668 83.0462 76.5964 81.8748C75.237 81.1466 74.0723 80.3866 73.1036 79.5941L70.8066 84.1547L71.6613 78.231C71.3972 77.9387 71.1596 77.645 70.9435 77.3445C69.1231 80.2653 67.9014 82.0494 67.282 82.6998C65.207 84.979 62.0827 86.314 59.3551 86.4516V86.4531C59.3203 86.4546 59.2848 86.4553 59.25 86.4568C59.1915 86.7431 59.1301 87.028 59.065 87.3129C58.937 87.8813 58.7993 88.4488 58.6521 89.0134C58.5677 89.3442 58.4604 89.6765 58.4338 90.0139C58.4219 90.1686 58.4426 90.3254 58.4722 90.5023C58.49 90.4986 58.5078 90.4949 58.5255 90.4905C58.5744 90.4801 58.6254 90.469 58.6802 90.4586C59.25 90.341 60.0943 90.176 61.1548 89.9947C61.2288 89.9821 61.3042 89.9688 61.3812 89.9562C61.6979 89.9022 62.0354 89.8474 62.3876 89.7926C62.4579 89.7808 62.5282 89.7712 62.5985 89.7593C62.6866 89.7453 62.7776 89.7327 62.8679 89.7187C62.9241 89.7098 62.9803 89.7024 63.0366 89.6927C63.559 89.615 64.1126 89.5366 64.6935 89.4619C64.8777 89.4374 65.0642 89.413 65.2529 89.3901C65.6488 89.3413 66.0565 89.2932 66.4754 89.2458C66.7536 89.2162 67.0363 89.1859 67.3234 89.1577C67.4944 89.14 67.6668 89.123 67.8422 89.1067C67.9473 89.0963 68.0531 89.086 68.1589 89.0771C68.5141 89.0453 68.8745 89.0142 69.2401 88.9853C69.4524 88.969 69.667 88.9535 69.8824 88.938C70.3552 88.9047 70.8355 88.8751 71.3224 88.8499C71.4593 88.8425 71.5955 88.8358 71.7324 88.8292C71.8537 88.8225 71.9751 88.8173 72.0965 88.8129C72.3888 88.8011 72.684 88.79 72.9815 88.7811C73.1221 88.7759 73.2612 88.7722 73.4033 88.7692C73.4951 88.767 73.5883 88.7655 73.6816 88.7626C73.8007 88.7604 73.9176 88.7574 74.0368 88.7559C74.1544 88.7537 74.2728 88.7522 74.392 88.7507C79.8628 88.693 85.7903 89.2821 90.655 91.334C91.1353 90.9174 90.8815 90.5393 90.7779 90.1589C89.9128 87.0021 89.3882 83.7824 89.1269 80.5198C89.1144 80.3637 89.0618 80.209 89.0285 80.0559C89.0618 80.0403 89.0951 80.0255 89.1292 80.01C89.1366 80.0063 89.1447 80.0026 89.1536 79.9981C89.1462 79.9404 89.138 79.882 89.1306 79.8228V79.8205C88.714 76.4477 88.6097 72.7122 89.1232 68.8465C89.1232 68.7658 89.1255 68.6866 89.1299 68.6075L89.1329 68.6097ZM80.1729 73.4566C79.6046 72.5524 78.9874 72.0906 78.3229 72.0758C77.0545 72.0455 76.0488 72.3555 75.3088 73.003C76.6401 74.2728 77.3934 74.9714 77.5725 75.0972C78.5538 75.815 79.7059 76.2649 81.032 76.4462C81.0283 75.3577 80.7405 74.3609 80.1721 73.4566H80.1729ZM80.1729 73.4566C79.6046 72.5524 78.9874 72.0906 78.3229 72.0758C77.0545 72.0455 76.0488 72.3555 75.3088 73.003C76.6401 74.2728 77.3934 74.9714 77.5725 75.0972C78.5538 75.815 79.7059 76.2649 81.032 76.4462C81.0283 75.3577 80.7405 74.3609 80.1721 73.4566H80.1729ZM89.1329 68.6097C89.1417 68.4254 89.1573 68.2434 89.1765 68.0643C89.2291 67.5915 89.3097 67.1304 89.3748 66.6702C89.7374 64.1764 90.2244 61.7041 91.0088 59.2999C91.0968 59.0305 91.0917 58.7264 91.1464 58.2935C90.6328 58.3815 90.2762 58.4393 89.921 58.5059C88.0532 58.8611 86.1869 59.2266 84.3162 59.5774C79.0362 60.7399 71.8034 61.505 64.3494 59.7535C62.4483 59.3983 60.619 58.881 58.8186 58.3253C58.7601 58.3623 58.7098 58.3993 58.6669 58.4378C59.9826 62.4988 62.0731 70.8245 60.8284 79.9589C62.4202 79.8723 63.952 79.5475 65.4209 78.9851C66.5797 78.5278 68.0346 77.0804 69.784 74.6413C71.4393 72.3518 72.4339 71.2122 72.7654 71.2204C72.9164 71.2226 73.0503 71.3328 73.165 71.5474C75.311 67.6973 77.5917 65.7999 80.0086 65.8562C81.9733 65.9021 83.4555 67.1312 84.4568 69.5428C85.3167 71.5881 85.7111 74.1211 85.6408 77.1425C85.6053 78.6817 85.2242 80.141 84.496 81.5144C83.6761 82.9759 82.7518 83.6951 81.7247 83.6722C80.5762 83.6455 78.8668 83.0462 76.5964 81.8748C75.237 81.1466 74.0723 80.3866 73.1036 79.5941L70.8066 84.1547L71.6613 78.231C71.3972 77.9387 71.1596 77.645 70.9435 77.3445C69.1231 80.2653 67.9014 82.0494 67.282 82.6998C65.207 84.979 62.0827 86.314 59.3551 86.4516V86.4531C59.3203 86.4546 59.2848 86.4553 59.25 86.4568C59.1915 86.7431 59.1301 87.028 59.065 87.3129C58.937 87.8813 58.7993 88.4488 58.6521 89.0134C58.5677 89.3442 58.4604 89.6765 58.4338 90.0139C58.4219 90.1686 58.4426 90.3254 58.4722 90.5023C58.49 90.4986 58.5078 90.4949 58.5255 90.4905C58.5744 90.4801 58.6254 90.469 58.6802 90.4586C59.25 90.341 60.0943 90.176 61.1548 89.9947C61.2288 89.9821 61.3042 89.9688 61.3812 89.9562C61.6979 89.9022 62.0354 89.8474 62.3876 89.7926C62.4579 89.7808 62.5282 89.7712 62.5985 89.7593C62.6866 89.7453 62.7776 89.7327 62.8679 89.7187C62.9241 89.7098 62.9803 89.7024 63.0366 89.6927C63.559 89.615 64.1126 89.5366 64.6935 89.4619C64.8777 89.4374 65.0642 89.413 65.2529 89.3901C65.6488 89.3413 66.0565 89.2932 66.4754 89.2458C66.7536 89.2162 67.0363 89.1859 67.3234 89.1577C67.4944 89.14 67.6668 89.123 67.8422 89.1067C67.9473 89.0963 68.0531 89.086 68.1589 89.0771C68.5141 89.0453 68.8745 89.0142 69.2401 88.9853C69.4524 88.969 69.667 88.9535 69.8824 88.938C70.3552 88.9047 70.8355 88.8751 71.3224 88.8499C71.4593 88.8425 71.5955 88.8358 71.7324 88.8292C71.8537 88.8225 71.9751 88.8173 72.0965 88.8129C72.3888 88.8011 72.684 88.79 72.9815 88.7811C73.1221 88.7759 73.2612 88.7722 73.4033 88.7692C73.4951 88.767 73.5883 88.7655 73.6816 88.7626C73.8007 88.7604 73.9176 88.7574 74.0368 88.7559C74.1544 88.7537 74.2728 88.7522 74.392 88.7507C79.8628 88.693 85.7903 89.2821 90.655 91.334C91.1353 90.9174 90.8815 90.5393 90.7779 90.1589C89.9128 87.0021 89.3882 83.7824 89.1269 80.5198C89.1144 80.3637 89.0618 80.209 89.0285 80.0559C89.0618 80.0403 89.0951 80.0255 89.1292 80.01C89.1366 80.0063 89.1447 80.0026 89.1536 79.9981C89.1462 79.9404 89.138 79.882 89.1306 79.8228V79.8205C88.714 76.4477 88.6097 72.7122 89.1232 68.8465C89.1232 68.7658 89.1255 68.6866 89.1299 68.6075L89.1329 68.6097ZM89.1329 68.6097C89.1417 68.4254 89.1573 68.2434 89.1765 68.0643C89.2291 67.5915 89.3097 67.1304 89.3748 66.6702C89.7374 64.1764 90.2244 61.7041 91.0088 59.2999C91.0968 59.0305 91.0917 58.7264 91.1464 58.2935C90.6328 58.3815 90.2762 58.4393 89.921 58.5059C88.0532 58.8611 86.1869 59.2266 84.3162 59.5774C79.0362 60.7399 71.8034 61.505 64.3494 59.7535C62.4483 59.3983 60.619 58.881 58.8186 58.3253C58.7601 58.3623 58.7098 58.3993 58.6669 58.4378C59.9826 62.4988 62.0731 70.8245 60.8284 79.9589C62.4202 79.8723 63.952 79.5475 65.4209 78.9851C66.5797 78.5278 68.0346 77.0804 69.784 74.6413C71.4393 72.3518 72.4339 71.2122 72.7654 71.2204C72.9164 71.2226 73.0503 71.3328 73.165 71.5474C75.311 67.6973 77.5917 65.7999 80.0086 65.8562C81.9733 65.9021 83.4555 67.1312 84.4568 69.5428C85.3167 71.5881 85.7111 74.1211 85.6408 77.1425C85.6053 78.6817 85.2242 80.141 84.496 81.5144C83.6761 82.9759 82.7518 83.6951 81.7247 83.6722C80.5762 83.6455 78.8668 83.0462 76.5964 81.8748C75.237 81.1466 74.0723 80.3866 73.1036 79.5941L70.8066 84.1547L71.6613 78.231C71.3972 77.9387 71.1596 77.645 70.9435 77.3445C69.1231 80.2653 67.9014 82.0494 67.282 82.6998C65.207 84.979 62.0827 86.314 59.3551 86.4516V86.4531C59.3203 86.4546 59.2848 86.4553 59.25 86.4568C59.1915 86.7431 59.1301 87.028 59.065 87.3129C58.937 87.8813 58.7993 88.4488 58.6521 89.0134C58.5677 89.3442 58.4604 89.6765 58.4338 90.0139C58.4219 90.1686 58.4426 90.3254 58.4722 90.5023C58.49 90.4986 58.5078 90.4949 58.5255 90.4905C58.5744 90.4801 58.6254 90.469 58.6802 90.4586C59.25 90.341 60.0943 90.176 61.1548 89.9947C61.2288 89.9821 61.3042 89.9688 61.3812 89.9562C61.6979 89.9022 62.0354 89.8474 62.3876 89.7926C62.4579 89.7808 62.5282 89.7712 62.5985 89.7593C62.6866 89.7453 62.7776 89.7327 62.8679 89.7187C62.9241 89.7098 62.9803 89.7024 63.0366 89.6927C63.559 89.615 64.1126 89.5366 64.6935 89.4619C64.8777 89.4374 65.0642 89.413 65.2529 89.3901C65.6488 89.3413 66.0565 89.2932 66.4754 89.2458C66.7536 89.2162 67.0363 89.1859 67.3234 89.1577C67.4944 89.14 67.6668 89.123 67.8422 89.1067C67.9473 89.0963 68.0531 89.086 68.1589 89.0771C68.5141 89.0453 68.8745 89.0142 69.2401 88.9853C69.4524 88.969 69.667 88.9535 69.8824 88.938C70.3552 88.9047 70.8355 88.8751 71.3224 88.8499C71.4593 88.8425 71.5955 88.8358 71.7324 88.8292C71.8537 88.8225 71.9751 88.8173 72.0965 88.8129C72.3888 88.8011 72.684 88.79 72.9815 88.7811C73.1221 88.7759 73.2612 88.7722 73.4033 88.7692C73.4951 88.767 73.5883 88.7655 73.6816 88.7626C73.8007 88.7604 73.9176 88.7574 74.0368 88.7559C74.1544 88.7537 74.2728 88.7522 74.392 88.7507C79.8628 88.693 85.7903 89.2821 90.655 91.334C91.1353 90.9174 90.8815 90.5393 90.7779 90.1589C89.9128 87.0021 89.3882 83.7824 89.1269 80.5198C89.1144 80.3637 89.0618 80.209 89.0285 80.0559C89.0618 80.0403 89.0951 80.0255 89.1292 80.01C89.1366 80.0063 89.1447 80.0026 89.1536 79.9981C89.1462 79.9404 89.138 79.882 89.1306 79.8228V79.8205C88.714 76.4477 88.6097 72.7122 89.1232 68.8465C89.1232 68.7658 89.1255 68.6866 89.1299 68.6075L89.1329 68.6097ZM80.1729 73.4566C79.6046 72.5524 78.9874 72.0906 78.3229 72.0758C77.0545 72.0455 76.0488 72.3555 75.3088 73.003C76.6401 74.2728 77.3934 74.9714 77.5725 75.0972C78.5538 75.815 79.7059 76.2649 81.032 76.4462C81.0283 75.3577 80.7405 74.3609 80.1721 73.4566H80.1729ZM80.1729 73.4566C79.6046 72.5524 78.9874 72.0906 78.3229 72.0758C77.0545 72.0455 76.0488 72.3555 75.3088 73.003C76.6401 74.2728 77.3934 74.9714 77.5725 75.0972C78.5538 75.815 79.7059 76.2649 81.032 76.4462C81.0283 75.3577 80.7405 74.3609 80.1721 73.4566H80.1729ZM89.1329 68.6097C89.1417 68.4254 89.1573 68.2434 89.1765 68.0643C89.2291 67.5915 89.3097 67.1304 89.3748 66.6702C89.7374 64.1764 90.2244 61.7041 91.0088 59.2999C91.0968 59.0305 91.0917 58.7264 91.1464 58.2935C90.6328 58.3815 90.2762 58.4393 89.921 58.5059C88.0532 58.8611 86.1869 59.2266 84.3162 59.5774C79.0362 60.7399 71.8034 61.505 64.3494 59.7535C62.4483 59.3983 60.619 58.881 58.8186 58.3253C58.7601 58.3623 58.7098 58.3993 58.6669 58.4378C59.9826 62.4988 62.0731 70.8245 60.8284 79.9589C62.4202 79.8723 63.952 79.5475 65.4209 78.9851C66.5797 78.5278 68.0346 77.0804 69.784 74.6413C71.4393 72.3518 72.4339 71.2122 72.7654 71.2204C72.9164 71.2226 73.0503 71.3328 73.165 71.5474C75.311 67.6973 77.5917 65.7999 80.0086 65.8562C81.9733 65.9021 83.4555 67.1312 84.4568 69.5428C85.3167 71.5881 85.7111 74.1211 85.6408 77.1425C85.6053 78.6817 85.2242 80.141 84.496 81.5144C83.6761 82.9759 82.7518 83.6951 81.7247 83.6722C80.5762 83.6455 78.8668 83.0462 76.5964 81.8748C75.237 81.1466 74.0723 80.3866 73.1036 79.5941L70.8066 84.1547L71.6613 78.231C71.3972 77.9387 71.1596 77.645 70.9435 77.3445C69.1231 80.2653 67.9014 82.0494 67.282 82.6998C65.207 84.979 62.0827 86.314 59.3551 86.4516V86.4531C59.3203 86.4546 59.2848 86.4553 59.25 86.4568C59.1915 86.7431 59.1301 87.028 59.065 87.3129C58.937 87.8813 58.7993 88.4488 58.6521 89.0134C58.5677 89.3442 58.4604 89.6765 58.4338 90.0139C58.4219 90.1686 58.4426 90.3254 58.4722 90.5023C58.49 90.4986 58.5078 90.4949 58.5255 90.4905C58.5744 90.4801 58.6254 90.469 58.6802 90.4586C59.25 90.341 60.0943 90.176 61.1548 89.9947C61.2288 89.9821 61.3042 89.9688 61.3812 89.9562C61.6979 89.9022 62.0354 89.8474 62.3876 89.7926C62.4579 89.7808 62.5282 89.7712 62.5985 89.7593C62.6866 89.7453 62.7776 89.7327 62.8679 89.7187C62.9241 89.7098 62.9803 89.7024 63.0366 89.6927C63.559 89.615 64.1126 89.5366 64.6935 89.4619C64.8777 89.4374 65.0642 89.413 65.2529 89.3901C65.6488 89.3413 66.0565 89.2932 66.4754 89.2458C66.7536 89.2162 67.0363 89.1859 67.3234 89.1577C67.4944 89.14 67.6668 89.123 67.8422 89.1067C67.9473 89.0963 68.0531 89.086 68.1589 89.0771C68.5141 89.0453 68.8745 89.0142 69.2401 88.9853C69.4524 88.969 69.667 88.9535 69.8824 88.938C70.3552 88.9047 70.8355 88.8751 71.3224 88.8499C71.4593 88.8425 71.5955 88.8358 71.7324 88.8292C71.8537 88.8225 71.9751 88.8173 72.0965 88.8129C72.3888 88.8011 72.684 88.79 72.9815 88.7811C73.1221 88.7759 73.2612 88.7722 73.4033 88.7692C73.4951 88.767 73.5883 88.7655 73.6816 88.7626C73.8007 88.7604 73.9176 88.7574 74.0368 88.7559C74.1544 88.7537 74.2728 88.7522 74.392 88.7507C79.8628 88.693 85.7903 89.2821 90.655 91.334C91.1353 90.9174 90.8815 90.5393 90.7779 90.1589C89.9128 87.0021 89.3882 83.7824 89.1269 80.5198C89.1144 80.3637 89.0618 80.209 89.0285 80.0559C89.0618 80.0403 89.0951 80.0255 89.1292 80.01L89.1306 79.8235V79.8213C88.714 76.4484 88.6097 72.7129 89.1232 68.8472C89.1232 68.7666 89.1255 68.6874 89.1299 68.6082L89.1329 68.6097ZM80.1729 73.4566C79.6046 72.5524 78.9874 72.0906 78.3229 72.0758C77.0545 72.0455 76.0488 72.3555 75.3088 73.003C76.6401 74.2728 77.3934 74.9714 77.5725 75.0972C78.5538 75.815 79.7059 76.2649 81.032 76.4462C81.0283 75.3577 80.7405 74.3609 80.1721 73.4566H80.1729ZM80.1729 73.4566C79.6046 72.5524 78.9874 72.0906 78.3229 72.0758C77.0545 72.0455 76.0488 72.3555 75.3088 73.003C76.6401 74.2728 77.3934 74.9714 77.5725 75.0972C78.5538 75.815 79.7059 76.2649 81.032 76.4462C81.0283 75.3577 80.7405 74.3609 80.1721 73.4566H80.1729ZM89.1329 68.6097C89.1417 68.4254 89.1573 68.2434 89.1765 68.0643C89.2291 67.5915 89.3097 67.1304 89.3748 66.6702C89.7374 64.1764 90.2244 61.7041 91.0088 59.2999C91.0968 59.0305 91.0917 58.7264 91.1464 58.2935C90.6328 58.3815 90.2762 58.4393 89.921 58.5059C88.0532 58.8611 86.1869 59.2266 84.3162 59.5774C79.0362 60.7399 71.8034 61.505 64.3494 59.7535C62.4483 59.3983 60.619 58.881 58.8186 58.3253C58.7601 58.3623 58.7098 58.3993 58.6669 58.4378C59.9826 62.4988 62.0731 70.8245 60.8284 79.9589C62.4202 79.8723 63.952 79.5475 65.4209 78.9851C66.5797 78.5278 68.0346 77.0804 69.784 74.6413C71.4393 72.3518 72.4339 71.2122 72.7654 71.2204C72.9164 71.2226 73.0503 71.3328 73.165 71.5474C75.311 67.6973 77.5917 65.7999 80.0086 65.8562C81.9733 65.9021 83.4555 67.1312 84.4568 69.5428C85.3167 71.5881 85.7111 74.1211 85.6408 77.1425C85.6053 78.6817 85.2242 80.141 84.496 81.5144C83.6761 82.9759 82.7518 83.6951 81.7247 83.6722C80.5762 83.6455 78.8668 83.0462 76.5964 81.8748C75.237 81.1466 74.0723 80.3866 73.1036 79.5941L70.8066 84.1547L71.6613 78.231C71.3972 77.9387 71.1596 77.645 70.9435 77.3445C69.1231 80.2653 67.9014 82.0494 67.282 82.6998C65.207 84.979 62.0827 86.314 59.3551 86.4516V86.4531C59.3203 86.4546 59.2848 86.4553 59.25 86.4568C59.1915 86.7431 59.1301 87.028 59.065 87.3129C58.937 87.8813 58.7993 88.4488 58.6521 89.0134C58.5677 89.3442 58.4604 89.6765 58.4338 90.0139C58.4219 90.1686 58.4426 90.3254 58.4722 90.5023C58.49 90.4986 58.5078 90.4949 58.5255 90.4905C58.5744 90.4801 58.6254 90.469 58.6802 90.4586C59.25 90.341 60.0943 90.176 61.1548 89.9947C61.2288 89.9821 61.3042 89.9688 61.3812 89.9562C61.6979 89.9022 62.0354 89.8474 62.3876 89.7926C62.4579 89.7808 62.5282 89.7712 62.5985 89.7593C62.6866 89.7453 62.7776 89.7327 62.8679 89.7187C62.9241 89.7098 62.9803 89.7024 63.0366 89.6927C63.559 89.615 64.1126 89.5366 64.6935 89.4619C64.8777 89.4374 65.0642 89.413 65.2529 89.3901C65.6488 89.3413 66.0565 89.2932 66.4754 89.2458C66.7536 89.2162 67.0363 89.1859 67.3234 89.1577C67.4944 89.14 67.6668 89.123 67.8422 89.1067C67.9473 89.0963 68.0531 89.086 68.1589 89.0771C68.5141 89.0453 68.8745 89.0142 69.2401 88.9853C69.4524 88.969 69.667 88.9535 69.8824 88.938C70.3552 88.9047 70.8355 88.8751 71.3224 88.8499C71.4593 88.8425 71.5955 88.8358 71.7324 88.8292C71.8537 88.8225 71.9751 88.8173 72.0965 88.8129C72.3888 88.8011 72.684 88.79 72.9815 88.7811C73.1221 88.7759 73.2612 88.7722 73.4033 88.7692C73.4951 88.767 73.5883 88.7655 73.6816 88.7626C73.8007 88.7604 73.9176 88.7574 74.0368 88.7559C74.1544 88.7537 74.2728 88.7522 74.392 88.7507C79.8628 88.693 85.7903 89.2821 90.655 91.334C91.1353 90.9174 90.8815 90.5393 90.7779 90.1589C89.9128 87.0021 89.3882 83.7824 89.1269 80.5198C89.1144 80.3637 89.0618 80.209 89.0285 80.0559C89.0618 80.0403 89.0951 80.0255 89.1292 80.01L89.1306 79.8235V79.8213C88.714 76.4484 88.6097 72.7129 89.1232 68.8472C89.1232 68.7666 89.1255 68.6874 89.1299 68.6082L89.1329 68.6097ZM80.1729 73.4566C79.6046 72.5524 78.9874 72.0906 78.3229 72.0758C77.0545 72.0455 76.0488 72.3555 75.3088 73.003C76.6401 74.2728 77.3934 74.9714 77.5725 75.0972C78.5538 75.815 79.7059 76.2649 81.032 76.4462C81.0283 75.3577 80.7405 74.3609 80.1721 73.4566H80.1729ZM80.1729 73.4566C79.6046 72.5524 78.9874 72.0906 78.3229 72.0758C77.0545 72.0455 76.0488 72.3555 75.3088 73.003C76.6401 74.2728 77.3934 74.9714 77.5725 75.0972C78.5538 75.815 79.7059 76.2649 81.032 76.4462C81.0283 75.3577 80.7405 74.3609 80.1721 73.4566H80.1729ZM89.1329 68.6097C89.1417 68.4254 89.1573 68.2434 89.1765 68.0643C89.2291 67.5915 89.3097 67.1304 89.3748 66.6702C89.7374 64.1764 90.2244 61.7041 91.0088 59.2999C91.0968 59.0305 91.0917 58.7264 91.1464 58.2935C90.6328 58.3815 90.2762 58.4393 89.921 58.5059C88.0532 58.8611 86.1869 59.2266 84.3162 59.5774C79.0362 60.7399 71.8034 61.505 64.3494 59.7535C62.4483 59.3983 60.619 58.881 58.8186 58.3253C58.7601 58.3623 58.7098 58.3993 58.6669 58.4378C59.9826 62.4988 62.0731 70.8245 60.8284 79.9589C62.4202 79.8723 63.952 79.5475 65.4209 78.9851C66.5797 78.5278 68.0346 77.0804 69.784 74.6413C71.4393 72.3518 72.4339 71.2122 72.7654 71.2204C72.9164 71.2226 73.0503 71.3328 73.165 71.5474C75.311 67.6973 77.5917 65.7999 80.0086 65.8562C81.9733 65.9021 83.4555 67.1312 84.4568 69.5428C85.3167 71.5881 85.7111 74.1211 85.6408 77.1425C85.6053 78.6817 85.2242 80.141 84.496 81.5144C83.6761 82.9759 82.7518 83.6951 81.7247 83.6722C80.5762 83.6455 78.8668 83.0462 76.5964 81.8748C75.237 81.1466 74.0723 80.3866 73.1036 79.5941L70.8066 84.1547L71.6613 78.231C71.3972 77.9387 71.1596 77.645 70.9435 77.3445C69.1231 80.2653 67.9014 82.0494 67.282 82.6998C65.207 84.979 62.0827 86.314 59.3551 86.4516V86.4531C59.3203 86.4546 59.2848 86.4553 59.25 86.4568C59.1915 86.7431 59.1301 87.028 59.065 87.3129C58.937 87.8813 58.7993 88.4488 58.6521 89.0134C58.5677 89.3442 58.4604 89.6765 58.4338 90.0139C58.4219 90.1686 58.4426 90.3254 58.4722 90.5023C58.49 90.4986 58.5078 90.4949 58.5255 90.4905C58.5744 90.4801 58.6254 90.469 58.6802 90.4586C59.25 90.341 60.0943 90.176 61.1548 89.9947C61.2288 89.9821 61.3042 89.9688 61.3812 89.9562C61.6979 89.9022 62.0354 89.8474 62.3876 89.7926C62.4579 89.7808 62.5282 89.7712 62.5985 89.7593C62.6866 89.7453 62.7776 89.7327 62.8679 89.7187C62.9241 89.7098 62.9803 89.7024 63.0366 89.6927C63.559 89.615 64.1126 89.5366 64.6935 89.4619C64.8777 89.4374 65.0642 89.413 65.2529 89.3901C65.6488 89.3413 66.0565 89.2932 66.4754 89.2458C66.7536 89.2162 67.0363 89.1859 67.3234 89.1577C67.4944 89.14 67.6668 89.123 67.8422 89.1067C67.9473 89.0963 68.0531 89.086 68.1589 89.0771C68.5141 89.0453 68.8745 89.0142 69.2401 88.9853C69.4524 88.969 69.667 88.9535 69.8824 88.938C70.3552 88.9047 70.8355 88.8751 71.3224 88.8499C71.4593 88.8425 71.5955 88.8358 71.7324 88.8292C71.8537 88.8225 71.9751 88.8173 72.0965 88.8129C72.3888 88.8011 72.684 88.79 72.9815 88.7811C73.1221 88.7759 73.2612 88.7722 73.4033 88.7692C73.4951 88.767 73.5883 88.7655 73.6816 88.7626C73.8007 88.7604 73.9176 88.7574 74.0368 88.7559C74.1544 88.7537 74.2728 88.7522 74.392 88.7507C79.8628 88.693 85.7903 89.2821 90.655 91.334C91.1353 90.9174 90.8815 90.5393 90.7779 90.1589C89.9128 87.0021 89.3882 83.7824 89.1269 80.5198C89.1144 80.3637 89.0618 80.209 89.0285 80.0559C89.0618 80.0403 89.0951 80.0255 89.1292 80.01C89.1366 80.0063 89.1447 80.0026 89.1536 79.9981C89.1462 79.9404 89.138 79.882 89.1306 79.8228V79.8205C88.714 76.4477 88.6097 72.7122 89.1232 68.8465C89.1232 68.7658 89.1255 68.6866 89.1299 68.6075L89.1329 68.6097Z" fill="#50AAB1"/>
</svg>
