<svg viewBox="0 0 317 175" fill="none" xmlns="http://www.w3.org/2000/svg">
<path d="M177.439 7.38498C177.47 7.38514 177.646 7.42477 177.965 7.82639C178.263 8.20113 178.605 8.79017 178.987 9.61642C179.751 11.2641 180.633 13.7579 181.633 17.1125C183.496 23.372 184.893 29.3864 185.824 35.1496C187.425 45.3785 188.691 55.8504 189.625 66.5666V66.5676C190.071 72.4022 190.538 78.2373 191.027 84.0705L191.028 84.0803L191.03 84.0901C191.858 90.7108 193.872 95.97 197.109 99.8205L197.427 100.189C199.937 103.04 202.5 104.634 205.113 104.815V113.173C201.429 113.02 197.961 111.176 194.702 107.54C192.117 104.647 190.355 101.616 189.401 98.4465V98.4445L189.162 97.6164C188.051 93.5418 186.963 86.529 185.906 76.5461L185.68 74.3615C184.427 61.9157 182.999 50.2303 181.394 39.3078L181.07 37.134C180.637 34.1397 179.706 30.2673 178.286 25.5217L177.648 23.4338C176.847 20.8091 176.247 18.8084 175.848 17.4319C175.648 16.7433 175.499 16.2137 175.401 15.841C175.351 15.6545 175.315 15.5108 175.292 15.4084C175.286 15.3808 175.279 15.3586 175.276 15.341C175.889 13.2717 176.586 10.6336 177.366 7.42892C177.385 7.40579 177.398 7.39613 177.403 7.39279C177.408 7.38987 177.415 7.38498 177.439 7.38498Z" fill="currentColor" stroke="currentColor"/>
<path d="M50.3994 16.872C51.7178 17.8076 53.7674 18.9284 56.5195 20.2274L56.6211 20.2753H56.624C57.7358 20.7851 58.5423 21.2595 59.0664 21.6952C59.62 22.1556 59.7695 22.4961 59.7695 22.7148C59.7695 25.3578 58.9745 27.7684 57.3818 29.955C54.8832 28.682 52.4047 27.4154 49.9512 26.1425H49.9502C48.7022 25.479 48.2563 24.8511 48.2236 24.3105C48.6858 22.8703 49.4137 20.3879 50.3994 16.872Z" fill="currentColor" stroke="currentColor"/>
<path d="M116.995 162.16L120.728 164.502C121.862 165.267 122.239 165.93 122.221 166.474C121.671 167.905 120.748 170.315 119.455 173.7C118.246 172.688 116.302 171.413 113.652 169.881C112.568 169.235 111.794 168.658 111.308 168.155C110.807 167.638 110.687 167.28 110.707 167.058C110.953 164.291 111.935 161.962 113.65 160.043C114.761 160.748 115.875 161.455 116.995 162.16ZM104.138 149.018C106.76 150.869 108.725 152.333 110.038 153.414C110.725 153.979 111.222 154.429 111.539 154.769C111.698 154.939 111.8 155.068 111.857 155.159C111.868 155.176 111.874 155.191 111.88 155.202C111.868 155.24 111.847 155.302 111.81 155.396C111.743 155.567 111.642 155.8 111.506 156.097C111.233 156.689 110.827 157.518 110.286 158.586C109.697 159.732 109.215 160.568 108.839 161.108C108.649 161.38 108.499 161.558 108.389 161.66C108.387 161.662 108.384 161.663 108.382 161.665C105.726 160.202 103.748 159.009 102.44 158.08C101.767 157.602 101.288 157.207 100.988 156.893C100.838 156.735 100.746 156.612 100.695 156.522C100.642 156.428 100.657 156.409 100.654 156.442L100.653 156.441C100.716 155.732 101.085 154.559 101.813 152.886C102.598 151.109 103.377 149.833 104.138 149.018ZM117.407 147.633C117.416 147.636 117.434 147.643 117.462 147.654C117.522 147.679 117.607 147.72 117.718 147.779C117.939 147.898 118.239 148.077 118.62 148.32C119.382 148.807 120.443 149.533 121.807 150.502L121.81 150.505C123.277 151.524 124.35 152.364 125.043 153.026C125.39 153.359 125.627 153.633 125.77 153.85C125.842 153.957 125.883 154.041 125.905 154.103L125.925 154.188C125.916 154.29 125.848 154.532 125.671 154.956C125.501 155.362 125.251 155.89 124.916 156.542C124.307 157.727 123.43 159.302 122.287 161.271C121.049 159.939 119.191 158.413 116.734 156.695L116.732 156.693C115.831 156.069 115.198 155.486 114.805 154.95C114.414 154.417 114.28 153.96 114.315 153.562V153.562C114.399 152.62 114.754 151.418 115.412 149.938C115.816 149.059 116.203 148.449 116.564 148.075C116.916 147.711 117.193 147.619 117.407 147.633Z" fill="currentColor" stroke="currentColor"/>
<mask id="path-4-inside-1_213_600" fill="currentColor">
<path d="M109.67 80.9831H109.672C113.52 80.8872 117.53 79.7089 121.701 77.4511C125.618 75.3147 127.399 73.8218 127.043 72.9751C126.42 71.4187 123.972 68.1901 119.7 63.2922C115.647 58.5721 112.843 53.8971 111.287 49.2659C110.306 49.2659 110.486 49.359 110.62 48.868C110.752 47.2198 110.511 44.8364 110.869 41.986C111.043 41.0843 111.254 40.5157 111.565 40.3915C114.243 42.5095 119.204 46.7259 121.897 49.0288C121.76 49.2758 121.429 49.3985 120.9 49.3985C119.611 49.3985 118.498 49.3096 117.561 49.1318C117.963 50.2917 120.121 53.1393 124.039 57.6817C127.644 61.7795 129.647 65.4286 130.046 68.6346C130.67 73.311 129.134 77.8096 125.439 82.1275C124.016 83.7644 121.9 85.3984 119.092 87.0353C119.079 87.0424 119.063 87.0508 119.048 87.0593C118.888 87.1524 118.726 87.2456 118.561 87.3373C118.292 87.4869 118.027 87.6294 117.764 87.7677C117.757 87.7719 117.752 87.7747 117.743 87.779C112.766 90.1694 102.655 90.4883 99.4701 90.5278C98.69 87.8552 98.2979 84.8199 98.2979 81.422C98.2979 81.3232 98.2979 81.223 98.3021 81.1242L106.427 81.2117"/>
</mask>
<path d="M109.67 80.9831H109.672C113.52 80.8872 117.53 79.7089 121.701 77.4511C125.618 75.3147 127.399 73.8218 127.043 72.9751C126.42 71.4187 123.972 68.1901 119.7 63.2922C115.647 58.5721 112.843 53.8971 111.287 49.2659C110.306 49.2659 110.486 49.359 110.62 48.868C110.752 47.2198 110.511 44.8364 110.869 41.986C111.043 41.0843 111.254 40.5157 111.565 40.3915C114.243 42.5095 119.204 46.7259 121.897 49.0288C121.76 49.2758 121.429 49.3985 120.9 49.3985C119.611 49.3985 118.498 49.3096 117.561 49.1318C117.963 50.2917 120.121 53.1393 124.039 57.6817C127.644 61.7795 129.647 65.4286 130.046 68.6346C130.67 73.311 129.134 77.8096 125.439 82.1275C124.016 83.7644 121.9 85.3984 119.092 87.0353C119.079 87.0424 119.063 87.0508 119.048 87.0593C118.888 87.1524 118.726 87.2456 118.561 87.3373C118.292 87.4869 118.027 87.6294 117.764 87.7677C117.757 87.7719 117.752 87.7747 117.743 87.779C112.766 90.1694 102.655 90.4883 99.4701 90.5278C98.69 87.8552 98.2979 84.8199 98.2979 81.422C98.2979 81.3232 98.2979 81.223 98.3021 81.1242L106.427 81.2117" fill="currentColor"/>
<path d="M109.672 80.9831V81.9831H109.684L109.697 81.9828L109.672 80.9831ZM121.701 77.4511L122.177 78.3306L122.18 78.3291L121.701 77.4511ZM127.043 72.9751L126.115 73.347L126.118 73.3546L126.121 73.3623L127.043 72.9751ZM119.7 63.2922L118.941 63.9436L118.946 63.9496L119.7 63.2922ZM111.287 49.2659L112.235 48.9474L112.006 48.2659H111.287V49.2659ZM110.62 48.868L111.584 49.1312L111.609 49.0412L111.616 48.9481L110.62 48.868ZM110.869 41.986L109.887 41.7971L109.881 41.829L109.877 41.8613L110.869 41.986ZM111.565 40.3915L112.185 39.6071L111.731 39.2479L111.193 39.463L111.565 40.3915ZM121.897 49.0288L122.772 49.5135L123.168 48.7994L122.547 48.2688L121.897 49.0288ZM117.561 49.1318L117.748 48.1494L116.051 47.8272L116.616 49.4593L117.561 49.1318ZM124.039 57.6817L123.281 58.3348L123.288 58.3422L124.039 57.6817ZM130.046 68.6346L129.054 68.7582L129.055 68.7668L130.046 68.6346ZM125.439 82.1275L126.194 82.7837L126.199 82.7776L125.439 82.1275ZM119.092 87.0353L119.577 87.9094L119.586 87.9044L119.595 87.8993L119.092 87.0353ZM119.048 87.0593L118.569 86.1815L118.556 86.1885L118.543 86.1959L119.048 87.0593ZM118.561 87.3373L119.047 88.2116L119.047 88.2114L118.561 87.3373ZM117.764 87.7677L117.298 86.883L117.273 86.896L117.25 86.9103L117.764 87.7677ZM117.743 87.779L118.176 88.6804L118.183 88.6769L118.19 88.6733L117.743 87.779ZM99.4701 90.5278L98.5102 90.808L98.723 91.5371L99.4825 91.5277L99.4701 90.5278ZM98.3021 81.1242L98.3129 80.1243L97.3445 80.1139L97.303 81.0814L98.3021 81.1242ZM109.67 80.9831V81.9831H109.672V80.9831V79.9831H109.67V80.9831ZM109.672 80.9831L109.697 81.9828C113.735 81.8821 117.899 80.6462 122.177 78.3306L121.701 77.4511L121.225 76.5717C117.161 78.7716 113.304 79.8922 109.647 79.9834L109.672 80.9831ZM121.701 77.4511L122.18 78.3291C124.154 77.2524 125.649 76.3072 126.617 75.4959C127.096 75.0944 127.503 74.6796 127.763 74.2515C128.023 73.8258 128.231 73.2203 127.965 72.588L127.043 72.9751L126.121 73.3623C126.033 73.1533 126.152 73.0519 126.055 73.211C125.96 73.3677 125.743 73.6184 125.332 73.963C124.52 74.644 123.166 75.5135 121.222 76.5732L121.701 77.4511ZM127.043 72.9751L127.971 72.6033C127.604 71.6869 126.76 70.3956 125.537 68.7825C124.293 67.1429 122.597 65.0921 120.453 62.6348L119.7 63.2922L118.946 63.9496C121.075 66.3902 122.739 68.4027 123.943 69.9909C125.168 71.6057 125.858 72.7069 126.115 73.347L127.043 72.9751ZM119.7 63.2922L120.458 62.6408C116.468 57.9927 113.74 53.4281 112.235 48.9474L111.287 49.2659L110.339 49.5843C111.945 54.3661 114.826 59.1514 118.941 63.9436L119.7 63.2922ZM111.287 49.2659V48.2659C111.048 48.2659 110.818 48.2721 110.741 48.2728C110.684 48.2733 110.681 48.2718 110.7 48.2735C110.711 48.2746 110.75 48.2784 110.803 48.2914C110.854 48.3038 110.953 48.3331 111.065 48.4029C111.187 48.4792 111.316 48.5992 111.405 48.7716C111.492 48.9378 111.512 49.0938 111.513 49.1993C111.514 49.2989 111.499 49.3734 111.492 49.4039C111.487 49.4219 111.484 49.4355 111.481 49.4432C111.479 49.4511 111.477 49.4559 111.477 49.4565C111.469 49.4816 111.542 49.2855 111.584 49.1312L110.62 48.868L109.655 48.6047C109.63 48.696 109.631 48.6723 109.582 48.818C109.573 48.8448 109.511 49.0139 109.513 49.2201C109.515 49.344 109.538 49.5159 109.632 49.6958C109.729 49.8819 109.868 50.0133 110.006 50.0993C110.234 50.2419 110.463 50.2602 110.519 50.2654C110.608 50.2734 110.697 50.2733 110.759 50.2727C110.92 50.2713 111.035 50.2659 111.287 50.2659V49.2659ZM110.62 48.868L111.616 48.9481C111.687 48.0714 111.659 46.9901 111.66 45.8787C111.661 44.736 111.69 43.4753 111.861 42.1107L110.869 41.986L109.877 41.8613C109.69 43.3471 109.661 44.7034 109.66 45.8769C109.659 47.0818 109.685 48.0164 109.623 48.7878L110.62 48.868ZM110.869 41.986L111.851 42.175C111.934 41.7464 112.014 41.4587 112.088 41.2839C112.124 41.1982 112.144 41.1733 112.138 41.1812C112.131 41.19 112.07 41.2665 111.936 41.3199L111.565 40.3915L111.193 39.463C110.641 39.6839 110.376 40.1948 110.243 40.5105C110.09 40.8765 109.978 41.324 109.887 41.7971L110.869 41.986ZM111.565 40.3915L110.944 41.1759C113.605 43.2796 118.55 47.4824 121.247 49.7888L121.897 49.0288L122.547 48.2688C119.858 45.9694 114.882 41.7394 112.185 39.6071L111.565 40.3915ZM121.897 49.0288L121.023 48.5442C121.056 48.4833 121.099 48.437 121.139 48.4058C121.176 48.3764 121.201 48.3676 121.198 48.3686C121.195 48.3698 121.171 48.378 121.118 48.3855C121.066 48.393 120.995 48.3985 120.9 48.3985V49.3985V50.3985C121.478 50.3985 122.347 50.2813 122.772 49.5135L121.897 49.0288ZM120.9 49.3985V48.3985C119.653 48.3985 118.606 48.3122 117.748 48.1494L117.561 49.1318L117.375 50.1143C118.39 50.307 119.568 50.3985 120.9 50.3985V49.3985ZM117.561 49.1318L116.616 49.4593C116.756 49.8634 117.018 50.3389 117.349 50.8567C117.689 51.3883 118.136 52.0181 118.685 52.7423C119.782 54.1912 121.317 56.0568 123.281 58.3347L124.039 57.6817L124.796 57.0286C122.843 54.7642 121.34 52.9348 120.279 51.5344C119.748 50.8339 119.335 50.2504 119.035 49.78C118.725 49.2956 118.567 48.9802 118.506 48.8043L117.561 49.1318ZM124.039 57.6817L123.288 58.3422C126.843 62.3827 128.691 65.8466 129.054 68.7582L130.046 68.6346L131.039 68.511C130.603 65.0105 128.445 61.1763 124.789 57.0211L124.039 57.6817ZM130.046 68.6346L129.055 68.7668C129.633 73.1041 128.23 77.3273 124.679 81.4774L125.439 82.1275L126.199 82.7776C130.037 78.2918 131.706 73.5178 131.038 68.5024L130.046 68.6346ZM125.439 82.1275L124.685 81.4713C123.36 82.9951 121.345 84.5645 118.588 86.1713L119.092 87.0353L119.595 87.8993C122.455 86.2323 124.672 84.5337 126.194 82.7837L125.439 82.1275ZM119.092 87.0353L118.606 86.1612C118.597 86.1661 118.585 86.1727 118.569 86.1815L119.048 87.0593L119.527 87.9371C119.542 87.929 119.561 87.9186 119.577 87.9094L119.092 87.0353ZM119.048 87.0593L118.543 86.1959C118.388 86.2865 118.233 86.3759 118.075 86.4632L118.561 87.3373L119.047 88.2114C119.22 88.1153 119.389 88.0184 119.552 87.9227L119.048 87.0593ZM118.561 87.3373L118.076 86.463C117.814 86.6083 117.556 86.7473 117.298 86.883L117.764 87.7677L118.23 88.6523C118.498 88.5115 118.769 88.3655 119.047 88.2116L118.561 87.3373ZM117.764 87.7677L117.25 86.9103C117.264 86.9015 117.277 86.8942 117.288 86.8885C117.293 86.8861 117.296 86.8844 117.297 86.8838C117.298 86.8834 117.298 86.8833 117.296 86.8846L117.743 87.779L118.19 88.6733C118.196 88.6705 118.234 88.6518 118.279 88.6251L117.764 87.7677ZM117.743 87.779L117.31 86.8776C114.988 87.9927 111.366 88.6583 107.827 89.0407C104.323 89.4194 101.034 89.5083 99.4577 89.5279L99.4701 90.5278L99.4825 91.5277C101.091 91.5077 104.45 91.4174 108.042 91.0292C111.599 90.6447 115.521 89.9556 118.176 88.6804L117.743 87.779ZM99.4701 90.5278L100.43 90.2476C99.6815 87.683 99.2979 84.7446 99.2979 81.422H98.2979H97.2979C97.2979 84.8951 97.6986 88.0273 98.5102 90.808L99.4701 90.5278ZM98.2979 81.422H99.2979C99.2979 81.3195 99.298 81.2408 99.3012 81.167L98.3021 81.1242L97.303 81.0814C97.2977 81.2052 97.2979 81.3269 97.2979 81.422H98.2979ZM98.3021 81.1242L98.2914 82.1242L106.416 82.2116L106.427 81.2117L106.438 80.2118L98.3129 80.1243L98.3021 81.1242Z" fill="currentColor" mask="url(#path-4-inside-1_213_600)"/>
<path d="M130.336 9.0791L130.298 8.99805C130.207 8.78157 130.115 8.39702 130.039 7.79492C130.533 6.26996 131.122 4.11041 131.815 1.32617L131.821 1.30566L131.824 1.28418C131.882 0.920876 131.957 0.69582 132.024 0.570312L132.929 1.16113L132.97 1.18848L133.016 1.20703C134.333 1.7338 136.323 2.6576 138.99 3.99512L139.034 4.0166L139.08 4.0293C139.336 4.10032 139.575 4.19273 139.8 4.30078C139.804 4.31707 139.812 4.34035 139.816 4.375C139.831 4.53233 139.81 4.79155 139.726 5.1748L139.722 5.19238C139.455 6.65678 139.208 8.1262 138.991 9.59082C138.748 10.7078 138.491 11.5067 138.232 12.0156C137.95 12.5685 137.764 12.5947 137.745 12.5947C137.44 12.5947 136.932 12.4787 136.186 12.1934C135.453 11.9133 134.536 11.4892 133.431 10.916H133.432C132.412 10.3839 131.637 9.95327 131.102 9.62305C130.833 9.45748 130.633 9.32251 130.496 9.2168C130.367 9.11718 130.334 9.07313 130.336 9.0791ZM139.864 4.33203L139.857 4.32715L139.859 4.32812L139.868 4.30664L139.864 4.33203Z" fill="currentColor" stroke="currentColor"/>
<path d="M167.313 42.766C167.711 43.197 168.298 43.8456 169.075 44.7133C171.1 46.9827 172.616 48.7147 173.623 49.9115C174.128 50.5107 174.5 50.9715 174.746 51.2953C174.775 51.3342 174.801 51.3715 174.827 51.4056C174.674 51.3852 174.448 51.3526 174.139 51.3011L174.078 51.2914L174.014 51.2963C173.598 51.332 172.838 51.2585 171.685 51.0345L170.941 50.89L171.101 51.6312C171.113 51.6851 171.134 51.7389 171.144 51.765C171.158 51.8019 171.176 51.8463 171.197 51.8959C171.239 51.9955 171.299 52.1293 171.374 52.2963C171.526 52.631 171.747 53.1086 172.037 53.7269C172.326 54.3455 172.686 55.1074 173.115 56.0121L174.61 59.1556C176.738 63.6846 177.936 67.0707 178.237 69.3519V69.3529C178.358 70.3578 178.419 71.3239 178.428 72.2494L178.426 72.2513V72.5013C178.426 76.0491 177.431 79.768 175.424 83.6605C171.525 88.9742 166.192 94.031 159.409 98.8246H159.408C156.922 100.586 154.243 102.31 151.363 103.998C150.048 104.77 148.743 105.5 147.449 106.18L147.447 106.182C144.864 107.56 142.327 108.765 139.831 109.802L138.766 110.236C137.496 110.739 136.239 111.202 134.996 111.62L133.756 112.023C129.519 113.351 125.428 114.17 121.471 114.471H121.47C120.292 114.565 119.122 114.612 117.969 114.612C117.467 114.612 116.978 114.6 116.497 114.571L116.492 114.57L115.603 114.515C111.206 114.172 107.467 112.832 104.372 110.515L104.371 110.514L104.007 110.238C102.209 108.831 100.628 107.083 99.2592 104.976H99.2582L99.1537 104.812C98.9334 104.469 98.7234 104.123 98.52 103.765L98.5161 103.759C98.0216 102.915 97.5735 102.029 97.1645 101.1L97.1635 101.097L96.8998 100.491C95.6975 97.6357 94.8633 94.4294 94.3998 90.8705L94.3061 90.1029C94.0771 88.1044 93.9624 85.9981 93.9623 83.7845C93.9623 82.3542 94.0128 80.9382 94.1176 79.5345V79.5336C94.3148 76.8187 94.7051 74.1546 95.2866 71.5385L95.2856 71.5375C95.552 70.3552 95.8523 69.4443 96.184 68.7885L96.1889 68.7787C96.3153 68.5147 96.4262 68.3248 96.52 68.1976C96.523 68.1935 96.5268 68.1898 96.5297 68.1859C96.5333 68.1941 96.5378 68.2023 96.5414 68.2113C96.6561 68.4933 96.7206 68.9532 96.6889 69.6371C96.6577 70.3111 96.5357 71.1595 96.3159 72.1898C95.7497 74.7535 95.4215 77.2882 95.3315 79.7933C95.3129 80.2802 95.3022 80.7663 95.3022 81.2513C95.3022 84.6981 95.7007 87.7908 96.5024 90.5248C97.6379 94.4021 99.5884 97.5517 102.36 99.9564C102.809 100.347 103.282 100.721 103.785 101.073C104.615 101.668 105.511 102.204 106.467 102.672V102.671C107.293 103.091 108.166 103.462 109.08 103.784V103.785C110.886 104.432 112.866 104.908 115.017 105.217V105.218C117.05 105.516 119.239 105.662 121.576 105.662C122.03 105.662 122.494 105.65 122.967 105.624L122.968 105.625C125.522 105.495 128.309 105.005 131.322 104.163L131.321 104.162C133.134 103.66 135.031 103.029 137.008 102.272C141.722 100.467 146.924 97.9432 152.604 94.7084C164.572 87.8973 172.307 81.811 175.676 76.4486L175.677 76.4496C175.822 76.2263 175.892 75.9736 175.892 75.7074C175.892 75.4382 175.816 75.1087 175.701 74.7484C175.582 74.378 175.408 73.9333 175.181 73.4183C174.728 72.3876 174.052 71.0436 173.158 69.39C171.113 65.4292 169.793 62.5909 169.186 60.847L169.183 60.8383L169.179 60.8295L168.837 59.9437C168.018 57.7868 167.045 54.9946 165.916 51.5677L165.872 51.432L165.762 51.3412L165.388 51.0219C165.296 50.9418 165.218 50.8728 165.155 50.8148C165.372 50.2318 165.621 49.3284 165.897 48.1322C166.227 46.7039 166.607 44.8181 167.042 42.4799C167.119 42.5608 167.21 42.6549 167.313 42.766Z" fill="currentColor" stroke="currentColor"/>
<path d="M238.813 7.58957C238.845 7.58957 239.021 7.6285 239.341 8.03098C239.639 8.40576 239.981 8.99468 240.364 9.82101C241.128 11.4686 242.01 13.9626 243.01 17.3171C244.873 23.5768 246.268 29.59 247.199 35.3523V35.3532C248.7 44.944 249.907 54.7524 250.822 64.7722L251.001 66.779C251.445 72.6118 251.914 78.4445 252.402 84.2771V84.2878L252.404 84.2976C253.259 91.1315 255.377 96.513 258.802 100.395V100.396C261.313 103.247 263.875 104.841 266.492 105.021V113.378C266.423 113.375 266.355 113.372 266.287 113.368H266.286C262.792 113.165 259.492 111.43 256.379 108.075L256.078 107.745C253.494 104.853 251.731 101.82 250.776 98.6511L250.775 98.6491C249.502 94.4733 248.257 86.4598 247.057 74.5661C245.802 62.1203 244.375 50.4347 242.77 39.5134L242.447 37.3396C242.013 34.3466 241.083 30.4734 239.662 25.7263L239.023 23.6384C238.223 21.0136 237.624 19.013 237.225 17.6364C237.025 16.9479 236.876 16.4183 236.777 16.0456C236.728 15.8591 236.692 15.7154 236.669 15.613C236.662 15.5844 236.656 15.5615 236.652 15.5437C237.264 13.4755 237.96 10.8391 238.74 7.63547C238.76 7.61159 238.773 7.60111 238.779 7.59738C238.785 7.59399 238.792 7.58962 238.813 7.58957Z" fill="currentColor" stroke="currentColor"/>
<path d="M271.719 24.2532C272.807 24.2533 273.522 24.8526 273.993 25.7991C274.475 26.768 274.668 28.0534 274.668 29.2396C274.668 30.0202 274.551 30.7649 274.353 31.4739L274.206 32.0023L274.745 32.1009C274.979 32.1435 275.232 32.1751 275.491 32.2015L274.507 33.6898C274.427 33.6774 274.348 33.6637 274.269 33.6497C274.101 33.62 273.918 33.586 273.736 33.5628L273.443 33.5257L273.269 33.764C271.128 36.6996 267.127 38.6281 263.328 38.6282C263.135 38.6282 262.961 38.6275 262.79 38.6224C263.351 37.0657 263.578 35.7476 263.578 34.765C263.577 34.1904 263.502 33.6959 263.337 33.3255C263.174 32.9579 262.861 32.6028 262.37 32.6028C262.158 32.6029 261.885 32.6561 261.6 32.7308C261.304 32.8084 260.954 32.9204 260.571 33.0589C260.006 33.263 259.357 33.5301 258.683 33.8421L259.041 31.803C259.634 31.4708 260.355 31.114 261.023 30.8323C261.395 30.6753 261.743 30.5443 262.038 30.4534C262.346 30.3587 262.553 30.3206 262.661 30.3206C262.966 30.3206 263.196 30.4049 263.38 30.5403C263.57 30.68 263.737 30.8942 263.875 31.1907C264.157 31.7946 264.281 32.6545 264.281 33.6028C264.281 34.4895 264.199 35.3689 264.041 36.1175L263.92 36.6917L264.506 36.72C265.472 36.7661 266.8 36.4933 268.121 36.0208C269.451 35.5454 270.833 34.8463 271.905 33.9935L272.715 33.3489L271.705 33.1155C269.574 32.6233 268.335 32.0345 267.63 31.3939C266.957 30.7814 266.735 30.0868 266.735 29.2396C266.735 28.1111 267.315 26.858 268.261 25.8773C269.205 24.899 270.454 24.2532 271.719 24.2532ZM270.516 25.7874C269.785 25.7874 269.104 26.0297 268.599 26.3812C268.119 26.7155 267.69 27.2312 267.69 27.8255C267.69 28.8861 268.618 30.747 273.149 31.764L273.758 31.9007V31.3421C273.836 31.0706 273.924 30.7396 273.924 30.3597C273.924 29.1398 273.552 28.0174 272.952 27.1888C272.354 26.3654 271.492 25.7875 270.516 25.7874Z" fill="currentColor" stroke="currentColor"/>
<path d="M136.862 29.3096C134.449 30.3643 132.867 31.8363 132.867 33.96C132.867 35.0594 133.282 35.9571 133.979 36.6348C134.667 37.3023 135.607 37.7377 136.645 37.9786L136.661 37.9815C136.677 37.9981 136.701 38.0279 136.728 38.0762C136.805 38.2151 136.887 38.4689 136.887 38.8565C136.887 39.8041 135.936 40.5606 134.765 40.5606H134.695C133.893 40.5605 132.781 40.1088 131.86 39.2042C130.953 38.3127 130.266 37.0122 130.266 35.3594C130.266 33.4688 131.124 31.9975 132.407 30.8692C133.585 29.8344 135.112 29.1001 136.621 28.6299L136.862 29.3096Z" fill="currentColor" stroke="currentColor"/>
<path d="M101.847 16.5385C93.822 19.7307 85.6697 22.5444 77.7556 25.1059L78.5671 21.3764C87.5411 18.3626 96.8694 15.2264 104.006 12.4916L101.847 16.5385Z" fill="currentColor" stroke="currentColor"/>
<path d="M222.381 9.57782C223.225 9.57782 224.37 9.88055 225.296 10.6774C226.206 11.4598 226.943 12.7515 226.943 14.8151C226.943 16.3399 226.171 17.3801 225.189 18.0583C224.188 18.7494 223 19.0368 222.298 19.0368C220.869 19.0368 219.825 18.5107 219.133 17.7302C218.44 16.9475 218.073 15.8752 218.067 14.736V14.7067C218.067 10.9583 220.884 9.57805 222.381 9.57782ZM221.306 11.4538C220.781 11.5393 220.21 11.7527 219.724 12.0837C219.072 12.5283 218.507 13.2366 218.507 14.1989C218.507 15.6252 219.784 17.1676 222.422 17.1677C223.602 17.1677 224.619 16.7782 225.341 16.3298C225.702 16.1057 226 15.8602 226.215 15.6286C226.322 15.5132 226.417 15.393 226.488 15.2722C226.551 15.1636 226.626 15.001 226.626 14.8151C226.626 14.6578 226.564 14.4953 226.518 14.3884C226.461 14.2571 226.382 14.1055 226.282 13.944C226.08 13.6206 225.783 13.2348 225.39 12.863C224.602 12.118 223.405 11.4099 221.806 11.4099H221.306V11.4538Z" fill="currentColor" stroke="currentColor"/>
<path d="M33.1461 59.8947C33.8604 59.8947 34.8492 60.1863 35.6569 60.9738C36.4533 61.7505 37.1119 63.0481 37.1119 65.132C37.1119 66.684 36.4184 67.7259 35.566 68.3928C34.6931 69.0757 33.6668 69.3536 33.0748 69.3537C31.8527 69.3537 30.9527 68.8463 30.3463 68.0705C29.7295 67.2814 29.3991 66.1891 29.399 65.0236C29.399 61.2171 31.9118 59.8949 33.1461 59.8947ZM32.1383 61.7795C31.6688 61.8727 31.1682 62.089 30.7448 62.4162C30.1541 62.8727 29.6697 63.5795 29.6696 64.5139C29.6696 65.1862 29.9377 65.9338 30.5221 66.5129C31.1138 67.099 31.9997 67.4836 33.1832 67.4836C34.2519 67.4835 35.1672 67.0838 35.8121 66.6301C36.135 66.4029 36.4015 66.1545 36.5924 65.9211C36.6875 65.8048 36.7701 65.6842 36.8317 65.5646C36.8879 65.4553 36.9498 65.3016 36.9498 65.131C36.9498 64.9865 36.8993 64.8321 36.858 64.7238C36.8087 64.5944 36.7384 64.4444 36.65 64.2834C36.4732 63.9613 36.2113 63.5749 35.8629 63.2014C35.1667 62.4551 34.0899 61.7258 32.6383 61.7258H32.1383V61.7795Z" fill="currentColor" stroke="currentColor"/>
<path d="M208.756 112.371C208.876 112.582 208.987 112.803 209.092 113.034C208.98 113.04 208.868 113.046 208.756 113.05V112.371Z" fill="currentColor" stroke="currentColor"/>
<path d="M237.899 83.2018C239.237 83.2018 240.408 83.6054 241.431 84.4138C242.461 85.2283 243.364 86.4725 244.122 88.1823L244.123 88.1833C245.379 90.9883 246.037 94.4903 246.079 98.7087L246.081 98.9665C246.081 99.0219 246.082 99.0782 246.082 99.1345C246.082 99.7391 246.045 100.333 245.969 100.917V100.919C245.774 102.463 245.317 103.952 244.6 105.387C244.007 106.503 243.386 107.284 242.753 107.765V107.766C242.198 108.189 241.629 108.384 241.043 108.384C240.333 108.384 239.432 108.225 238.33 107.887L237.846 107.732L237.386 107.572C236.292 107.18 235.045 106.644 233.648 105.963H233.647C231.984 105.121 230.522 104.243 229.259 103.334L228.771 102.984L228.515 103.525L226.181 108.439L226.99 101.737L227.02 101.492L226.843 101.319C226.278 100.766 225.782 100.205 225.35 99.6325L224.9 99.0378L224.521 99.6794C221.929 104.059 220.219 106.681 219.371 107.613L219.363 107.621C216.668 110.723 213.595 112.478 210.138 112.935C209.866 112.276 209.538 111.675 209.153 111.137L209.152 111.136L208.896 110.802C208.851 110.747 208.803 110.693 208.756 110.639V104.703C211.663 104.645 214.431 104.079 217.059 103.002L217.063 103C218 102.605 219.001 101.827 220.067 100.715C221.139 99.5969 222.303 98.1134 223.559 96.2741C224.735 94.5643 225.671 93.2942 226.368 92.4548C226.718 92.0336 226.998 91.734 227.21 91.5436C227.309 91.4548 227.383 91.3989 227.435 91.3669C227.468 91.3947 227.521 91.453 227.586 91.5661L228.038 92.3561L228.462 91.5515C231.473 85.8359 234.64 83.202 237.899 83.2018ZM235.633 91.4177C233.674 91.4177 232.071 91.935 230.887 93.0192L230.483 93.3884L230.888 93.7575C231.89 94.6718 232.677 95.381 233.248 95.8845C233.804 96.3743 234.185 96.6967 234.354 96.8093V96.8083C235.895 97.8818 237.687 98.5309 239.717 98.7604L240.289 98.8249L240.272 98.2487C240.226 96.6607 239.799 95.1991 238.987 93.8757L238.82 93.613C237.917 92.2494 236.863 91.4177 235.633 91.4177Z" fill="currentColor" stroke="currentColor"/>
<mask id="path-16-inside-2_213_600" fill="currentColor">
<path d="M266.731 104.534C266.572 104.539 266.415 104.54 266.256 104.54V113.891C266.376 113.891 266.494 113.89 266.611 113.886C266.629 113.887 266.649 113.886 266.666 113.886C266.775 113.884 266.882 113.879 266.991 113.873V104.54C266.903 104.54 266.818 104.539 266.731 104.534Z"/>
</mask>
<path d="M266.731 104.534C266.572 104.539 266.415 104.54 266.256 104.54V113.891C266.376 113.891 266.494 113.89 266.611 113.886C266.629 113.887 266.649 113.886 266.666 113.886C266.775 113.884 266.882 113.879 266.991 113.873V104.54C266.903 104.54 266.818 104.539 266.731 104.534Z" fill="currentColor"/>
<path d="M266.731 104.534L266.779 103.535L266.742 103.534L266.704 103.535L266.731 104.534ZM266.256 104.54V103.54H265.256V104.54H266.256ZM266.256 113.891H265.256V114.891H266.256V113.891ZM266.611 113.886L266.688 112.889L266.631 112.884L266.575 112.886L266.611 113.886ZM266.666 113.886V114.886L266.679 114.886L266.666 113.886ZM266.991 113.873L267.042 114.872L267.991 114.822V113.873H266.991ZM266.991 104.54H267.991V103.54H266.991V104.54ZM266.731 104.534L266.704 103.535C266.556 103.539 266.409 103.54 266.256 103.54V104.54V105.54C266.421 105.54 266.587 105.538 266.758 105.534L266.731 104.534ZM266.256 104.54H265.256V113.891H266.256H267.256V104.54H266.256ZM266.256 113.891V114.891C266.383 114.891 266.514 114.89 266.647 114.885L266.611 113.886L266.575 112.886C266.474 112.89 266.368 112.891 266.256 112.891V113.891ZM266.611 113.886L266.534 114.883C266.592 114.887 266.64 114.886 266.658 114.886C266.663 114.886 266.668 114.886 266.671 114.886C266.676 114.886 266.675 114.886 266.677 114.886C266.68 114.885 266.675 114.886 266.666 114.886V113.886V112.886C266.657 112.886 266.649 112.886 266.643 112.886C266.637 112.886 266.632 112.886 266.629 112.886C266.627 112.886 266.625 112.886 266.624 112.886C266.623 112.886 266.622 112.886 266.621 112.886C266.62 112.886 266.62 112.886 266.62 112.886C266.621 112.886 266.629 112.886 266.639 112.886C266.65 112.886 266.667 112.887 266.688 112.889L266.611 113.886ZM266.666 113.886L266.679 114.886C266.811 114.884 266.938 114.877 267.042 114.872L266.991 113.873L266.939 112.874C266.826 112.88 266.739 112.885 266.653 112.886L266.666 113.886ZM266.991 113.873H267.991V104.54H266.991H265.991V113.873H266.991ZM266.991 104.54V103.54C266.914 103.54 266.846 103.539 266.779 103.535L266.731 104.534L266.683 105.533C266.791 105.538 266.892 105.54 266.991 105.54V104.54Z" fill="currentColor" mask="url(#path-16-inside-2_213_600)"/>
<path d="M298.277 83.532C299.614 83.532 300.784 83.9356 301.807 84.7439C302.837 85.5585 303.739 86.8027 304.497 88.5125L304.498 88.5115C305.795 91.4115 306.457 95.0551 306.457 99.4617C306.457 101.652 305.963 103.736 304.974 105.715C303.847 107.837 302.644 108.714 301.415 108.714C299.85 108.714 297.405 107.939 294.028 106.295H294.029C292.026 105.282 290.313 104.219 288.891 103.109L288.398 102.724L288.131 103.289L286.219 107.315L286.908 101.604L286.937 101.371L286.775 101.201C286.389 100.793 286.038 100.38 285.723 99.9627L285.273 99.368L284.894 100.01C282.465 104.115 280.811 106.675 279.915 107.748L279.746 107.943L279.738 107.952C276.88 111.243 273.592 113.018 269.866 113.336V105.005C272.324 104.882 274.683 104.392 276.938 103.528L277.434 103.332L277.438 103.33C278.375 102.935 279.376 102.157 280.442 101.045C281.514 99.9271 282.677 98.4444 283.933 96.6053L283.932 96.6043C285.109 94.8943 286.045 93.6244 286.742 92.7849C287.092 92.3636 287.372 92.0641 287.585 91.8738C287.684 91.7851 287.758 91.7291 287.81 91.6971C287.843 91.725 287.896 91.7834 287.961 91.8963L288.413 92.6863L288.837 91.8816C291.851 86.1646 295.017 83.5322 298.277 83.532ZM296.007 91.7488C294.05 91.7488 292.446 92.2653 291.262 93.3513L290.858 93.7205L291.264 94.0896C292.266 95.003 293.053 95.7122 293.623 96.2156C294.168 96.6968 294.546 97.0167 294.719 97.1346V97.1355C296.263 98.2121 298.059 98.8616 300.091 99.0916L300.662 99.157L300.646 98.5818C300.6 96.8871 300.116 95.3359 299.194 93.9441H299.193C298.292 92.5805 297.237 91.7489 296.007 91.7488Z" fill="currentColor" stroke="currentColor"/>
<path d="M42.3184 123.472C39.9504 125.004 37.6586 126.409 35.4414 127.682L34.4482 128.247C33.4723 128.797 32.5085 129.321 31.5605 129.82V129.821C30.458 130.402 29.3757 130.948 28.3135 131.459L2.80176 133.716C3.73416 133.294 4.72919 132.852 5.78906 132.394L7.9834 131.459C19.5514 126.574 27.5826 122.937 32.0674 120.559V120.558C32.8127 120.162 33.4634 119.8 34.0176 119.472L34.0195 119.471C34.3312 119.285 34.6371 119.103 34.9463 118.92L34.9473 118.921C36.4548 118.027 37.8932 117.171 39.2598 116.356L42.3184 123.472Z" fill="currentColor" stroke="currentColor"/>
<path d="M63.9623 62.1129C63.9829 62.1228 64.012 62.1378 64.0492 62.1637C64.1685 62.2464 64.3272 62.3962 64.5238 62.6344L64.5345 62.6471L64.5463 62.6598C65.2908 63.4431 66.6175 64.9715 68.5492 67.2496L71.3578 74.5035L71.8851 74.3775C77.0728 77.4472 84.6478 79.2212 91.2533 80.2525C91.1685 81.5313 91.1254 82.8186 91.1254 84.1168C91.1254 86.1401 91.2203 88.0795 91.4095 89.9342C82.9122 89.0729 77.1065 86.905 74.5814 85.7906L74.1459 85.5982L73.932 86.024L73.931 86.0269L73.8685 86.1519L73.8802 86.2906C73.9208 86.7995 73.9456 87.278 73.9554 87.7291L73.9603 88.1715C73.9321 91.2608 73.624 93.9211 73.0394 96.1568C72.7926 97.099 72.4991 97.9634 72.1566 98.7525L72.1556 98.7535C71.9316 99.2715 71.6894 99.7545 71.4252 100.209C71.3608 100.319 71.2835 100.439 71.1918 100.57C71.0507 100.768 70.8831 100.986 70.683 101.223L70.681 101.225C70.2757 101.709 69.7486 102.269 69.097 102.905L68.4037 103.567C67.6953 104.23 66.872 104.963 65.933 105.764L65.931 105.765C65.0829 106.494 64.1428 107.28 63.1107 108.12L63.1097 108.121C62.5649 108.566 61.9927 109.024 61.3939 109.501L61.3929 109.502L60.642 110.098C59.2273 111.218 57.6737 112.42 55.9857 113.704C55.7032 113.919 55.4217 114.133 55.1332 114.349H55.1322C54.4916 114.831 53.8615 115.305 53.2289 115.773C52.2831 116.471 51.3543 117.156 50.431 117.817L50.4301 117.818C49.3466 118.6 48.2752 119.356 47.2191 120.091L44.35 113.247C45.097 112.795 45.815 112.36 46.5043 111.939H46.5052C47.7244 111.192 48.8575 110.494 49.891 109.853H49.892C52.2736 108.375 54.1681 107.162 55.5765 106.212L55.5785 106.211C56.8629 105.334 58.1 104.455 59.2767 103.589L59.2777 103.588C59.9938 103.059 60.6885 102.532 61.3627 102.006L62.0306 101.481C62.6238 101.009 63.2023 100.541 63.7679 100.07C64.0639 99.8248 64.3571 99.5778 64.6459 99.3316C67.6386 96.7878 70.1668 94.2661 72.2435 91.7623L72.4222 91.5475L72.3324 91.2828C68.91 81.2248 65.6979 74.2826 62.6947 70.5172C62.9573 67.8839 63.3283 65.2497 63.8002 62.6148C63.8508 62.3509 63.9114 62.1962 63.9603 62.1168C63.9611 62.1155 63.9615 62.1141 63.9623 62.1129Z" fill="currentColor" stroke="currentColor"/>
<path d="M46.8793 120.425C45.6224 121.29 44.386 122.12 43.1693 122.917L40.1273 115.839C41.4867 115.027 42.7725 114.254 43.9847 113.521L46.8793 120.425Z" fill="currentColor" stroke="currentColor"/>
<path d="M94.0797 80.0733C94.4964 80.1344 94.9082 80.1933 95.315 80.2491C95.306 80.5844 95.2994 80.9194 95.2994 81.2539C95.2994 84.4183 95.6359 87.2838 96.3111 89.8477C95.6114 89.8071 94.9276 89.7571 94.2593 89.6992C94.0602 87.822 93.9595 85.8514 93.9595 83.7871C93.9595 82.5386 94.0002 81.3012 94.0797 80.0733Z" fill="currentColor" stroke="currentColor"/>
<mask id="path-23-inside-3_213_600" fill="currentColor">
<path d="M108.373 39.1509L108.245 39.1074C108.267 39.1017 108.31 39.1172 108.373 39.1509Z"/>
</mask>
<path d="M108.373 39.1509L108.245 39.1074C108.267 39.1017 108.31 39.1172 108.373 39.1509Z" fill="currentColor"/>
<path d="M108.373 39.1509L108.051 40.0975L108.844 38.2684L108.373 39.1509ZM108.245 39.1074L107.988 38.1411L104.8 38.9906L107.923 40.054L108.245 39.1074ZM108.373 39.1509L108.696 38.2042L108.568 38.1607L108.245 39.1074L107.923 40.054L108.051 40.0975L108.373 39.1509ZM108.245 39.1074L108.503 40.0736C108.327 40.1206 108.183 40.1058 108.12 40.0963C108.047 40.0857 107.994 40.0687 107.968 40.06C107.918 40.0428 107.892 40.0277 107.903 40.0334L108.373 39.1509L108.844 38.2684C108.791 38.2404 108.712 38.2007 108.619 38.1688C108.582 38.1561 108.313 38.0546 107.988 38.1411L108.245 39.1074Z" fill="currentColor" mask="url(#path-23-inside-3_213_600)"/>
<path d="M36.6503 134.864C35.8914 134.571 35.3765 133.94 35.1029 132.966C34.8377 132.02 34.7008 130.592 34.6938 128.684C33.7134 129.237 32.7457 129.763 31.7936 130.264C31.7343 131.403 31.613 132.302 31.4282 132.968C31.156 133.942 30.6313 134.572 29.8526 134.866C29.0739 135.158 27.8876 135.303 26.2922 135.303V137.053H40.0033V135.303C38.5264 135.303 37.4078 135.158 36.6503 134.866V134.864ZM71.0436 134.893C70.3045 134.622 69.7995 134.105 69.5272 133.345C69.255 132.587 69.1196 131.507 69.1196 130.106V105.768C69.1196 104.969 69.1619 104.275 69.2451 103.683C68.5299 104.352 67.7005 105.09 66.7568 105.896C65.9048 106.628 64.9611 107.417 63.9257 108.26V130.106C63.9257 131.507 63.8101 132.587 63.5759 133.345C63.3432 134.104 62.8565 134.622 62.1173 134.893C61.3782 135.165 60.2497 135.302 58.7333 135.302V137.052H74.2528V135.302C72.8534 135.302 71.7814 135.165 71.0436 134.893ZM64.8201 98.7037H63.1104L62.2189 100.843C62.8099 100.373 63.3855 99.9059 63.9483 99.4374C64.2431 99.1933 64.5351 98.9492 64.8215 98.705L64.8201 98.7037ZM56.7881 113.853L50.8579 128.063H50.6251L47.4993 120.607L44.2238 112.793L38.3134 98.7022H26.4107V100.455C27.9652 100.455 29.1247 100.6 29.8822 100.892C30.6411 101.184 31.156 101.709 31.4297 102.468C31.7005 103.226 31.8373 104.345 31.8373 105.825V120.117C32.5779 119.723 33.2211 119.365 33.767 119.042C34.0788 118.856 34.3905 118.672 34.6966 118.49V105.007H34.9308L39.4983 115.635L42.9486 123.663L48.7011 137.052H50.1004L61.4544 110.244C60.0367 111.365 58.4808 112.569 56.7909 113.855L56.7881 113.853Z" fill="currentColor" stroke="currentColor" stroke-width="2" stroke-miterlimit="10"/>
<path d="M103.78 132.382C103.389 132.81 102.971 133.161 102.524 133.434C102.077 133.706 101.582 133.841 101.036 133.841C100.415 133.841 99.9667 133.668 99.6958 133.316C99.4236 132.966 99.2867 132.189 99.2867 130.983V117.732C99.2867 114.696 98.6238 112.439 97.302 110.96C95.9803 109.483 93.7233 108.742 90.5339 108.742C88.4336 108.742 86.6139 109.054 85.0791 109.676C83.5416 110.3 82.3567 111.099 81.5188 112.071C80.6823 113.045 80.2647 114.075 80.2647 115.164C80.2647 116.138 80.5257 116.848 81.0505 117.295C81.5766 117.742 82.131 117.965 82.715 117.965C83.5317 117.965 84.1637 117.742 84.6108 117.295C85.058 116.848 85.2837 116.176 85.2837 115.281C85.2837 113.529 85.5164 112.304 85.9819 111.602C86.4502 110.901 87.5195 110.553 89.1911 110.553C90.8626 110.553 92.2549 111.087 93.1295 112.157C94.004 113.227 94.4413 115.027 94.4413 117.556V120.124C93.4299 120.436 92.2634 120.766 90.9416 121.116C89.6185 121.466 88.2657 121.895 86.8861 122.4C85.5037 122.905 84.2215 123.529 83.0352 124.268C81.8474 125.008 80.8953 125.912 80.1759 126.983C79.4565 128.053 79.0968 129.367 79.0968 130.923C79.0968 132.792 79.6892 134.348 80.877 135.593C82.0619 136.839 83.7856 137.461 86.0412 137.461C87.2853 137.461 88.3856 137.294 89.3378 136.964C90.2899 136.634 91.1856 136.157 92.0221 135.535C92.8572 134.914 93.7219 134.213 94.6176 133.434H94.8786C95.0733 134.594 95.3441 135.506 95.6968 136.177C96.1058 136.956 96.9903 137.344 98.3515 137.344C99.8284 137.344 101.006 137.023 101.881 136.381C102.755 135.739 103.679 134.718 104.653 133.316L103.778 132.382H103.78ZM91.6131 133.493C90.5029 133.998 89.4436 134.251 88.4336 134.251C87.188 134.251 86.1766 133.823 85.3979 132.966C84.6193 132.113 84.2314 130.963 84.2314 129.523C84.2314 128.006 84.718 126.78 85.6899 125.846C86.6618 124.912 87.9257 124.153 89.483 123.569C91.0389 122.986 92.6922 122.479 94.4427 122.052V131.682C93.5202 132.45 92.5779 133.053 91.6145 133.493H91.6131Z" fill="currentColor" stroke="currentColor" stroke-width="2" stroke-miterlimit="10"/>
<path d="M153.258 135.36V137.052H140.072V135.36C141.393 135.36 142.348 135.183 142.931 134.833C143.513 134.483 143.873 133.93 144.01 133.17C144.147 132.411 144.214 131.448 144.214 130.281V119.073C144.214 117.285 143.989 115.923 143.542 114.988C143.094 114.054 142.492 113.404 141.733 113.033C140.976 112.664 140.129 112.479 139.196 112.479C137.912 112.479 136.647 112.937 135.402 113.852C134.344 114.628 133.373 115.384 132.484 116.119V130.283C132.484 131.605 132.571 132.638 132.748 133.376C132.921 134.115 133.322 134.63 133.944 134.924C134.565 135.216 135.576 135.361 136.977 135.361V137.053H123.149V135.361C124.548 135.361 125.559 135.224 126.181 134.952C126.805 134.68 127.203 134.173 127.377 133.435C127.551 132.696 127.641 131.644 127.641 130.283V118.726C127.641 116.235 127.203 114.571 126.327 113.735C125.452 112.898 124.332 112.479 122.971 112.479C121.882 112.479 120.862 112.713 119.908 113.18C118.953 113.649 118.089 114.193 117.313 114.814C116.694 115.308 116.148 115.778 115.679 116.225V131.39C115.679 132.481 115.795 133.307 116.029 133.871C116.262 134.435 116.689 134.824 117.313 135.038C117.934 135.252 118.849 135.36 120.055 135.36V137.052H106.752V135.36C107.996 135.36 108.901 135.251 109.466 135.038C110.03 134.824 110.399 134.417 110.573 133.812C110.749 133.209 110.837 132.323 110.837 131.156V114.813C110.837 113.761 110.632 113.063 110.225 112.712C109.815 112.362 109.202 112.185 108.387 112.185C107.959 112.185 107.432 112.225 106.811 112.302V110.609L114.105 108.917H115.504V113.646H115.739C117.333 112.284 118.869 111.127 120.347 110.172C121.824 109.219 123.556 108.742 125.539 108.742C127.291 108.742 128.699 109.25 129.77 110.262C130.728 111.168 131.475 112.276 132.011 113.588H132.25C133.844 111.993 135.401 110.787 136.917 109.97C138.434 109.151 139.97 108.742 141.526 108.742C143.821 108.742 145.65 109.463 147.012 110.901C148.373 112.343 149.053 114.834 149.053 118.374V130.281C149.053 131.488 149.121 132.468 149.257 133.229C149.394 133.987 149.762 134.533 150.368 134.863C150.97 135.193 151.932 135.36 153.255 135.36H153.258Z" fill="currentColor" stroke="currentColor" stroke-width="2" stroke-miterlimit="10"/>
<path d="M181.498 132.382C181.107 132.81 180.69 133.161 180.243 133.434C179.796 133.706 179.3 133.841 178.756 133.841C178.132 133.841 177.684 133.668 177.413 133.316C177.141 132.966 177.004 132.189 177.004 130.983V117.732C177.004 114.696 176.344 112.439 175.022 110.96C173.699 109.483 171.442 108.742 168.253 108.742C166.152 108.742 164.333 109.054 162.798 109.676C161.26 110.3 160.075 111.099 159.237 112.071C158.401 113.045 157.983 114.075 157.983 115.164C157.983 116.138 158.247 116.848 158.771 117.295C159.295 117.742 159.85 117.965 160.434 117.965C161.25 117.965 161.882 117.742 162.331 117.295C162.775 116.848 163.001 116.176 163.001 115.281C163.001 113.529 163.234 112.304 163.702 111.602C164.167 110.901 165.238 110.553 166.91 110.553C168.581 110.553 169.974 111.087 170.848 112.157C171.725 113.227 172.163 115.027 172.163 117.556V120.124C171.15 120.436 169.983 120.766 168.662 121.116C167.339 121.466 165.986 121.895 164.606 122.4C163.225 122.905 161.942 123.529 160.755 124.268C159.57 125.008 158.617 125.912 157.897 126.983C157.177 128.053 156.818 129.367 156.818 130.923C156.818 132.792 157.411 134.348 158.596 135.593C159.783 136.839 161.504 137.461 163.76 137.461C165.005 137.461 166.104 137.294 167.058 136.964C168.01 136.634 168.904 136.157 169.741 135.535C170.576 134.914 171.441 134.213 172.336 133.434H172.597C172.792 134.594 173.063 135.506 173.415 136.177C173.824 136.956 174.709 137.344 176.07 137.344C177.548 137.344 178.725 137.023 179.602 136.381C180.477 135.739 181.399 134.718 182.373 133.316L181.498 132.382ZM169.332 133.493C168.224 133.998 167.164 134.251 166.152 134.251C164.907 134.251 163.895 133.823 163.119 132.966C162.339 132.113 161.951 130.963 161.951 129.523C161.951 128.006 162.438 126.78 163.411 125.846C164.383 124.912 165.647 124.153 167.204 123.569C168.759 122.986 170.412 122.479 172.164 122.052V131.682C171.242 132.45 170.299 133.053 169.333 133.493H169.332Z" fill="currentColor" stroke="currentColor" stroke-width="2" stroke-miterlimit="10"/>
<path d="M214.989 135.416V137.05H201.51V135.416C202.91 135.416 203.911 135.291 204.515 135.038C205.117 134.785 205.487 134.348 205.622 133.726C205.759 133.102 205.827 132.247 205.827 131.157V120.594C205.827 118.259 205.563 116.509 205.04 115.339C204.515 114.172 203.844 113.404 203.027 113.033C202.21 112.664 201.352 112.479 200.459 112.479C199.331 112.479 198.32 112.705 197.427 113.152C196.531 113.599 195.724 114.135 195.005 114.756C194.44 115.245 193.904 115.709 193.401 116.15V131.159C193.401 132.248 193.477 133.105 193.634 133.727C193.789 134.351 194.177 134.788 194.8 135.039C195.421 135.293 196.434 135.418 197.833 135.418V137.052H184.472V135.418C185.793 135.418 186.736 135.292 187.301 135.039C187.866 134.787 188.215 134.349 188.352 133.727C188.489 133.103 188.557 132.248 188.557 131.159V114.756C188.557 113.705 188.342 113.015 187.915 112.683C187.488 112.353 186.882 112.187 186.107 112.187C185.602 112.187 185.074 112.226 184.531 112.304V110.61L191.941 108.919H193.284L193.233 113.647H193.459C195.053 112.246 196.561 111.079 197.981 110.145C198.03 110.112 198.08 110.08 198.129 110.052C199.513 109.178 201.089 108.742 202.853 108.742C204.374 108.742 205.669 109.037 206.741 109.633C207.311 109.944 207.814 110.341 208.257 110.824C208.429 111.011 208.594 111.214 208.748 111.428C209.176 112.024 209.532 112.707 209.816 113.476C210.387 115.015 210.674 116.901 210.674 119.131V131.155C210.674 132.244 210.761 133.101 210.935 133.723C211.111 134.347 211.509 134.784 212.131 135.035C212.751 135.289 213.706 135.413 214.99 135.413L214.989 135.416Z" fill="currentColor" stroke="currentColor" stroke-width="2" stroke-miterlimit="10"/>
<path d="M260.471 103.578C259.674 102.315 258.603 101.331 257.263 100.63C255.92 99.9285 254.383 99.4332 252.652 99.1411C251.884 99.0127 251.104 98.9125 250.309 98.842C249.313 98.7488 248.294 98.7037 247.255 98.7037H246.579C246.581 98.8462 246.581 98.9901 246.581 99.134C246.581 99.7592 246.542 100.374 246.463 100.981H246.554C248.491 100.981 250.123 101.251 251.449 101.787C252.279 102.124 252.992 102.566 253.584 103.113C254.927 104.357 255.685 106.067 255.852 108.247C255.876 108.559 255.889 108.882 255.889 109.214C255.889 111.47 255.52 113.231 254.782 114.495C254.041 115.761 252.952 116.657 251.513 117.181C250.075 117.706 248.306 117.968 246.204 117.968C245.621 117.968 245.028 117.938 244.424 117.88C243.821 117.821 243.363 117.772 243.053 117.735V108.165C242.421 108.646 241.748 108.886 241.04 108.886C240.154 108.886 239.034 108.66 237.684 108.207V129.641C237.684 131.275 237.568 132.491 237.334 133.288C237.101 134.086 236.615 134.622 235.875 134.893C235.136 135.165 234.008 135.302 232.491 135.302V137.052H248.946V135.302C247.39 135.302 246.184 135.185 245.328 134.952C244.472 134.719 243.879 134.213 243.548 133.435C243.216 132.656 243.051 131.471 243.051 129.873V119.893C243.362 120.048 243.848 120.165 244.511 120.243C245.171 120.32 245.795 120.358 246.379 120.358C248.283 120.358 250.151 120.165 251.98 119.776C253.807 119.388 255.452 118.726 256.912 117.79C258.37 116.856 259.527 115.623 260.383 114.085C260.67 113.57 260.908 113.016 261.097 112.421C261.478 111.237 261.667 109.894 261.667 108.392C261.667 106.446 261.268 104.842 260.471 103.578Z" fill="currentColor" stroke="currentColor" stroke-width="2" stroke-miterlimit="10"/>
<path d="M288.566 132.382C288.175 132.81 287.758 133.161 287.31 133.434C286.863 133.706 286.368 133.841 285.822 133.841C285.202 133.841 284.753 133.668 284.482 133.316C284.21 132.966 284.073 132.189 284.073 130.983V117.732C284.073 114.696 283.41 112.439 282.088 110.96C280.767 109.483 278.51 108.742 275.32 108.742C273.22 108.742 271.4 109.054 269.865 109.676C268.328 110.3 267.143 111.099 266.305 112.071C265.469 113.045 265.051 114.075 265.051 115.164C265.051 116.138 265.312 116.848 265.838 117.295C266.363 117.742 266.917 117.965 267.501 117.965C268.318 117.965 268.95 117.742 269.397 117.295C269.844 116.848 270.07 116.176 270.07 115.281C270.07 113.529 270.303 112.304 270.768 111.602C271.237 110.901 272.306 110.553 273.977 110.553C275.649 110.553 277.041 111.087 277.916 112.157C278.79 113.227 279.228 115.027 279.228 117.556V120.124C278.216 120.436 277.05 120.766 275.728 121.116C274.405 121.466 273.052 121.895 271.672 122.4C270.291 122.905 269.008 123.529 267.821 124.268C266.634 125.008 265.682 125.912 264.962 126.983C264.243 128.053 263.883 129.367 263.883 130.923C263.883 132.792 264.475 134.348 265.663 135.593C266.851 136.839 268.572 137.461 270.827 137.461C272.072 137.461 273.172 137.294 274.124 136.964C275.076 136.634 275.972 136.157 276.808 135.535C277.643 134.914 278.508 134.213 279.404 133.434H279.665C279.86 134.594 280.13 135.506 280.483 136.177C280.892 136.956 281.777 137.344 283.138 137.344C284.615 137.344 285.793 137.023 286.667 136.381C287.542 135.739 288.466 134.718 289.439 133.316L288.564 132.382H288.566ZM276.401 133.493C275.293 133.998 274.233 134.251 273.221 134.251C271.976 134.251 270.964 133.823 270.186 132.966C269.407 132.113 269.019 130.963 269.019 129.523C269.019 128.006 269.506 126.78 270.478 125.846C271.451 124.912 272.713 124.153 274.271 123.569C275.827 122.986 277.48 122.479 279.23 122.052V131.682C278.308 132.45 277.366 133.053 276.402 133.493H276.401Z" fill="currentColor" stroke="currentColor" stroke-width="2" stroke-miterlimit="10"/>
<path d="M313.889 137.052H291.483V135.358L307.878 112.07V111.895H300.002C297.862 111.895 296.433 112.429 295.713 113.5C294.992 114.571 294.497 116.079 294.225 118.024H292.417L292.709 109.445H314.239V111.138L297.843 134.485V134.66H305.136C306.808 134.66 308.113 134.455 309.045 134.047C309.979 133.638 310.698 132.93 311.205 131.917C311.71 130.905 312.157 129.505 312.546 127.714H314.472L313.888 137.053L313.889 137.052Z" fill="currentColor" stroke="currentColor" stroke-width="2" stroke-miterlimit="10"/>
<path d="M199.921 19.1475C200.478 21.6235 200.841 24.3342 200.841 26.7051C200.841 27.3242 200.766 28.2085 200.577 28.712L200.576 28.7149C200.377 29.2527 200.19 29.6727 199.966 30.0753C199.856 27.2773 199.37 23.9685 198.554 21.0938C199.012 20.3907 199.466 19.7405 199.921 19.1475Z" fill="currentColor" stroke="currentColor"/>
<mask id="path-34-inside-4_213_600" fill="currentColor">
<path d="M119.051 87.0579C118.891 87.151 118.729 87.2441 118.564 87.3358C118.746 87.2258 118.907 87.1326 119.051 87.0579Z"/>
</mask>
<path d="M119.051 87.0579C118.891 87.151 118.729 87.2441 118.564 87.3358C118.746 87.2258 118.907 87.1326 119.051 87.0579Z" fill="currentColor"/>
<path d="M119.051 87.0579L119.555 87.9213L118.589 86.1706L119.051 87.0579ZM118.564 87.3358L118.046 86.4802L119.05 88.2099L118.564 87.3358ZM119.051 87.0579L118.546 86.1944C118.391 86.285 118.235 86.3744 118.078 86.4618L118.564 87.3358L119.05 88.2099C119.223 88.1138 119.391 88.0169 119.555 87.9213L119.051 87.0579ZM118.564 87.3358L119.082 88.1915C119.257 88.0857 119.396 88.0053 119.512 87.9452L119.051 87.0579L118.589 86.1706C118.417 86.26 118.235 86.3659 118.046 86.4802L118.564 87.3358Z" fill="currentColor" mask="url(#path-34-inside-4_213_600)"/>
</svg>
